%TF.GenerationSoftware,KiCad,Pcbnew,8.0.8*%
%TF.CreationDate,2025-02-15T21:23:54+01:00*%
%TF.ProjectId,universal_fan_ctrl,756e6976-6572-4736-916c-5f66616e5f63,rev?*%
%TF.SameCoordinates,Original*%
%TF.FileFunction,Legend,Bot*%
%TF.FilePolarity,Positive*%
%FSLAX46Y46*%
G04 Gerber Fmt 4.6, Leading zero omitted, Abs format (unit mm)*
G04 Created by KiCad (PCBNEW 8.0.8) date 2025-02-15 21:23:54*
%MOMM*%
%LPD*%
G01*
G04 APERTURE LIST*
%ADD10C,0.200000*%
%ADD11R,1.700000X1.700000*%
%ADD12O,1.700000X1.700000*%
%ADD13R,1.050000X1.500000*%
%ADD14O,1.050000X1.500000*%
G04 APERTURE END LIST*
D10*
X150239850Y-65852219D02*
X150049374Y-65852219D01*
X150049374Y-65852219D02*
X149954136Y-65899838D01*
X149954136Y-65899838D02*
X149858898Y-65995076D01*
X149858898Y-65995076D02*
X149811279Y-66185552D01*
X149811279Y-66185552D02*
X149811279Y-66518885D01*
X149811279Y-66518885D02*
X149858898Y-66709361D01*
X149858898Y-66709361D02*
X149954136Y-66804600D01*
X149954136Y-66804600D02*
X150049374Y-66852219D01*
X150049374Y-66852219D02*
X150239850Y-66852219D01*
X150239850Y-66852219D02*
X150335088Y-66804600D01*
X150335088Y-66804600D02*
X150430326Y-66709361D01*
X150430326Y-66709361D02*
X150477945Y-66518885D01*
X150477945Y-66518885D02*
X150477945Y-66185552D01*
X150477945Y-66185552D02*
X150430326Y-65995076D01*
X150430326Y-65995076D02*
X150335088Y-65899838D01*
X150335088Y-65899838D02*
X150239850Y-65852219D01*
X149382707Y-65852219D02*
X149382707Y-66661742D01*
X149382707Y-66661742D02*
X149335088Y-66756980D01*
X149335088Y-66756980D02*
X149287469Y-66804600D01*
X149287469Y-66804600D02*
X149192231Y-66852219D01*
X149192231Y-66852219D02*
X149001755Y-66852219D01*
X149001755Y-66852219D02*
X148906517Y-66804600D01*
X148906517Y-66804600D02*
X148858898Y-66756980D01*
X148858898Y-66756980D02*
X148811279Y-66661742D01*
X148811279Y-66661742D02*
X148811279Y-65852219D01*
X148477945Y-65852219D02*
X147906517Y-65852219D01*
X148192231Y-66852219D02*
X148192231Y-65852219D01*
X147573183Y-66471266D02*
X146811279Y-66471266D01*
X147192231Y-66852219D02*
X147192231Y-66090314D01*
X152830326Y-74071266D02*
X152068422Y-74071266D01*
X151639850Y-74404600D02*
X151496993Y-74452219D01*
X151496993Y-74452219D02*
X151258898Y-74452219D01*
X151258898Y-74452219D02*
X151163660Y-74404600D01*
X151163660Y-74404600D02*
X151116041Y-74356980D01*
X151116041Y-74356980D02*
X151068422Y-74261742D01*
X151068422Y-74261742D02*
X151068422Y-74166504D01*
X151068422Y-74166504D02*
X151116041Y-74071266D01*
X151116041Y-74071266D02*
X151163660Y-74023647D01*
X151163660Y-74023647D02*
X151258898Y-73976028D01*
X151258898Y-73976028D02*
X151449374Y-73928409D01*
X151449374Y-73928409D02*
X151544612Y-73880790D01*
X151544612Y-73880790D02*
X151592231Y-73833171D01*
X151592231Y-73833171D02*
X151639850Y-73737933D01*
X151639850Y-73737933D02*
X151639850Y-73642695D01*
X151639850Y-73642695D02*
X151592231Y-73547457D01*
X151592231Y-73547457D02*
X151544612Y-73499838D01*
X151544612Y-73499838D02*
X151449374Y-73452219D01*
X151449374Y-73452219D02*
X151211279Y-73452219D01*
X151211279Y-73452219D02*
X151068422Y-73499838D01*
X150639850Y-74071266D02*
X149877946Y-74071266D01*
X150258898Y-74452219D02*
X150258898Y-73690314D01*
X150239850Y-68452219D02*
X150049374Y-68452219D01*
X150049374Y-68452219D02*
X149954136Y-68499838D01*
X149954136Y-68499838D02*
X149858898Y-68595076D01*
X149858898Y-68595076D02*
X149811279Y-68785552D01*
X149811279Y-68785552D02*
X149811279Y-69118885D01*
X149811279Y-69118885D02*
X149858898Y-69309361D01*
X149858898Y-69309361D02*
X149954136Y-69404600D01*
X149954136Y-69404600D02*
X150049374Y-69452219D01*
X150049374Y-69452219D02*
X150239850Y-69452219D01*
X150239850Y-69452219D02*
X150335088Y-69404600D01*
X150335088Y-69404600D02*
X150430326Y-69309361D01*
X150430326Y-69309361D02*
X150477945Y-69118885D01*
X150477945Y-69118885D02*
X150477945Y-68785552D01*
X150477945Y-68785552D02*
X150430326Y-68595076D01*
X150430326Y-68595076D02*
X150335088Y-68499838D01*
X150335088Y-68499838D02*
X150239850Y-68452219D01*
X149382707Y-68452219D02*
X149382707Y-69261742D01*
X149382707Y-69261742D02*
X149335088Y-69356980D01*
X149335088Y-69356980D02*
X149287469Y-69404600D01*
X149287469Y-69404600D02*
X149192231Y-69452219D01*
X149192231Y-69452219D02*
X149001755Y-69452219D01*
X149001755Y-69452219D02*
X148906517Y-69404600D01*
X148906517Y-69404600D02*
X148858898Y-69356980D01*
X148858898Y-69356980D02*
X148811279Y-69261742D01*
X148811279Y-69261742D02*
X148811279Y-68452219D01*
X148477945Y-68452219D02*
X147906517Y-68452219D01*
X148192231Y-69452219D02*
X148192231Y-68452219D01*
X147573183Y-69071266D02*
X146811279Y-69071266D01*
X145155386Y-69452219D02*
X145155386Y-68452219D01*
X144679196Y-69452219D02*
X144679196Y-68452219D01*
X144679196Y-68452219D02*
X144107768Y-69452219D01*
X144107768Y-69452219D02*
X144107768Y-68452219D01*
X143631577Y-69071266D02*
X142869673Y-69071266D01*
X142435714Y-76352219D02*
X142769047Y-75876028D01*
X143007142Y-76352219D02*
X143007142Y-75352219D01*
X143007142Y-75352219D02*
X142626190Y-75352219D01*
X142626190Y-75352219D02*
X142530952Y-75399838D01*
X142530952Y-75399838D02*
X142483333Y-75447457D01*
X142483333Y-75447457D02*
X142435714Y-75542695D01*
X142435714Y-75542695D02*
X142435714Y-75685552D01*
X142435714Y-75685552D02*
X142483333Y-75780790D01*
X142483333Y-75780790D02*
X142530952Y-75828409D01*
X142530952Y-75828409D02*
X142626190Y-75876028D01*
X142626190Y-75876028D02*
X143007142Y-75876028D01*
X142149999Y-75685552D02*
X141769047Y-75685552D01*
X142007142Y-75352219D02*
X142007142Y-76209361D01*
X142007142Y-76209361D02*
X141959523Y-76304600D01*
X141959523Y-76304600D02*
X141864285Y-76352219D01*
X141864285Y-76352219D02*
X141769047Y-76352219D01*
X141435713Y-76352219D02*
X141435713Y-75685552D01*
X141435713Y-75876028D02*
X141388094Y-75780790D01*
X141388094Y-75780790D02*
X141340475Y-75733171D01*
X141340475Y-75733171D02*
X141245237Y-75685552D01*
X141245237Y-75685552D02*
X141149999Y-75685552D01*
X145155386Y-66852219D02*
X145155386Y-65852219D01*
X144679196Y-66852219D02*
X144679196Y-65852219D01*
X144679196Y-65852219D02*
X144107768Y-66852219D01*
X144107768Y-66852219D02*
X144107768Y-65852219D01*
X143631577Y-66471266D02*
X142869673Y-66471266D01*
X143250625Y-66852219D02*
X143250625Y-66090314D01*
X146947618Y-72752219D02*
X146376190Y-72752219D01*
X146661904Y-73752219D02*
X146661904Y-72752219D01*
X146090475Y-73704600D02*
X145947618Y-73752219D01*
X145947618Y-73752219D02*
X145709523Y-73752219D01*
X145709523Y-73752219D02*
X145614285Y-73704600D01*
X145614285Y-73704600D02*
X145566666Y-73656980D01*
X145566666Y-73656980D02*
X145519047Y-73561742D01*
X145519047Y-73561742D02*
X145519047Y-73466504D01*
X145519047Y-73466504D02*
X145566666Y-73371266D01*
X145566666Y-73371266D02*
X145614285Y-73323647D01*
X145614285Y-73323647D02*
X145709523Y-73276028D01*
X145709523Y-73276028D02*
X145899999Y-73228409D01*
X145899999Y-73228409D02*
X145995237Y-73180790D01*
X145995237Y-73180790D02*
X146042856Y-73133171D01*
X146042856Y-73133171D02*
X146090475Y-73037933D01*
X146090475Y-73037933D02*
X146090475Y-72942695D01*
X146090475Y-72942695D02*
X146042856Y-72847457D01*
X146042856Y-72847457D02*
X145995237Y-72799838D01*
X145995237Y-72799838D02*
X145899999Y-72752219D01*
X145899999Y-72752219D02*
X145661904Y-72752219D01*
X145661904Y-72752219D02*
X145519047Y-72799838D01*
X144376189Y-72847457D02*
X144328570Y-72799838D01*
X144328570Y-72799838D02*
X144233332Y-72752219D01*
X144233332Y-72752219D02*
X143995237Y-72752219D01*
X143995237Y-72752219D02*
X143899999Y-72799838D01*
X143899999Y-72799838D02*
X143852380Y-72847457D01*
X143852380Y-72847457D02*
X143804761Y-72942695D01*
X143804761Y-72942695D02*
X143804761Y-73037933D01*
X143804761Y-73037933D02*
X143852380Y-73180790D01*
X143852380Y-73180790D02*
X144423808Y-73752219D01*
X144423808Y-73752219D02*
X143804761Y-73752219D01*
X143185713Y-72752219D02*
X143090475Y-72752219D01*
X143090475Y-72752219D02*
X142995237Y-72799838D01*
X142995237Y-72799838D02*
X142947618Y-72847457D01*
X142947618Y-72847457D02*
X142899999Y-72942695D01*
X142899999Y-72942695D02*
X142852380Y-73133171D01*
X142852380Y-73133171D02*
X142852380Y-73371266D01*
X142852380Y-73371266D02*
X142899999Y-73561742D01*
X142899999Y-73561742D02*
X142947618Y-73656980D01*
X142947618Y-73656980D02*
X142995237Y-73704600D01*
X142995237Y-73704600D02*
X143090475Y-73752219D01*
X143090475Y-73752219D02*
X143185713Y-73752219D01*
X143185713Y-73752219D02*
X143280951Y-73704600D01*
X143280951Y-73704600D02*
X143328570Y-73656980D01*
X143328570Y-73656980D02*
X143376189Y-73561742D01*
X143376189Y-73561742D02*
X143423808Y-73371266D01*
X143423808Y-73371266D02*
X143423808Y-73133171D01*
X143423808Y-73133171D02*
X143376189Y-72942695D01*
X143376189Y-72942695D02*
X143328570Y-72847457D01*
X143328570Y-72847457D02*
X143280951Y-72799838D01*
X143280951Y-72799838D02*
X143185713Y-72752219D01*
X142471427Y-72847457D02*
X142423808Y-72799838D01*
X142423808Y-72799838D02*
X142328570Y-72752219D01*
X142328570Y-72752219D02*
X142090475Y-72752219D01*
X142090475Y-72752219D02*
X141995237Y-72799838D01*
X141995237Y-72799838D02*
X141947618Y-72847457D01*
X141947618Y-72847457D02*
X141899999Y-72942695D01*
X141899999Y-72942695D02*
X141899999Y-73037933D01*
X141899999Y-73037933D02*
X141947618Y-73180790D01*
X141947618Y-73180790D02*
X142519046Y-73752219D01*
X142519046Y-73752219D02*
X141899999Y-73752219D01*
X140995237Y-72752219D02*
X141471427Y-72752219D01*
X141471427Y-72752219D02*
X141519046Y-73228409D01*
X141519046Y-73228409D02*
X141471427Y-73180790D01*
X141471427Y-73180790D02*
X141376189Y-73133171D01*
X141376189Y-73133171D02*
X141138094Y-73133171D01*
X141138094Y-73133171D02*
X141042856Y-73180790D01*
X141042856Y-73180790D02*
X140995237Y-73228409D01*
X140995237Y-73228409D02*
X140947618Y-73323647D01*
X140947618Y-73323647D02*
X140947618Y-73561742D01*
X140947618Y-73561742D02*
X140995237Y-73656980D01*
X140995237Y-73656980D02*
X141042856Y-73704600D01*
X141042856Y-73704600D02*
X141138094Y-73752219D01*
X141138094Y-73752219D02*
X141376189Y-73752219D01*
X141376189Y-73752219D02*
X141471427Y-73704600D01*
X141471427Y-73704600D02*
X141519046Y-73656980D01*
X146092857Y-76352219D02*
X146426190Y-75876028D01*
X146664285Y-76352219D02*
X146664285Y-75352219D01*
X146664285Y-75352219D02*
X146283333Y-75352219D01*
X146283333Y-75352219D02*
X146188095Y-75399838D01*
X146188095Y-75399838D02*
X146140476Y-75447457D01*
X146140476Y-75447457D02*
X146092857Y-75542695D01*
X146092857Y-75542695D02*
X146092857Y-75685552D01*
X146092857Y-75685552D02*
X146140476Y-75780790D01*
X146140476Y-75780790D02*
X146188095Y-75828409D01*
X146188095Y-75828409D02*
X146283333Y-75876028D01*
X146283333Y-75876028D02*
X146664285Y-75876028D01*
X145664285Y-76352219D02*
X145664285Y-75685552D01*
X145664285Y-75780790D02*
X145616666Y-75733171D01*
X145616666Y-75733171D02*
X145521428Y-75685552D01*
X145521428Y-75685552D02*
X145378571Y-75685552D01*
X145378571Y-75685552D02*
X145283333Y-75733171D01*
X145283333Y-75733171D02*
X145235714Y-75828409D01*
X145235714Y-75828409D02*
X145235714Y-76352219D01*
X145235714Y-75828409D02*
X145188095Y-75733171D01*
X145188095Y-75733171D02*
X145092857Y-75685552D01*
X145092857Y-75685552D02*
X144950000Y-75685552D01*
X144950000Y-75685552D02*
X144854761Y-75733171D01*
X144854761Y-75733171D02*
X144807142Y-75828409D01*
X144807142Y-75828409D02*
X144807142Y-76352219D01*
X144473809Y-75685552D02*
X144092857Y-75685552D01*
X144330952Y-75352219D02*
X144330952Y-76209361D01*
X144330952Y-76209361D02*
X144283333Y-76304600D01*
X144283333Y-76304600D02*
X144188095Y-76352219D01*
X144188095Y-76352219D02*
X144092857Y-76352219D01*
X149107768Y-71952219D02*
X149441101Y-71476028D01*
X149679196Y-71952219D02*
X149679196Y-70952219D01*
X149679196Y-70952219D02*
X149298244Y-70952219D01*
X149298244Y-70952219D02*
X149203006Y-70999838D01*
X149203006Y-70999838D02*
X149155387Y-71047457D01*
X149155387Y-71047457D02*
X149107768Y-71142695D01*
X149107768Y-71142695D02*
X149107768Y-71285552D01*
X149107768Y-71285552D02*
X149155387Y-71380790D01*
X149155387Y-71380790D02*
X149203006Y-71428409D01*
X149203006Y-71428409D02*
X149298244Y-71476028D01*
X149298244Y-71476028D02*
X149679196Y-71476028D01*
X148726815Y-71904600D02*
X148583958Y-71952219D01*
X148583958Y-71952219D02*
X148345863Y-71952219D01*
X148345863Y-71952219D02*
X148250625Y-71904600D01*
X148250625Y-71904600D02*
X148203006Y-71856980D01*
X148203006Y-71856980D02*
X148155387Y-71761742D01*
X148155387Y-71761742D02*
X148155387Y-71666504D01*
X148155387Y-71666504D02*
X148203006Y-71571266D01*
X148203006Y-71571266D02*
X148250625Y-71523647D01*
X148250625Y-71523647D02*
X148345863Y-71476028D01*
X148345863Y-71476028D02*
X148536339Y-71428409D01*
X148536339Y-71428409D02*
X148631577Y-71380790D01*
X148631577Y-71380790D02*
X148679196Y-71333171D01*
X148679196Y-71333171D02*
X148726815Y-71237933D01*
X148726815Y-71237933D02*
X148726815Y-71142695D01*
X148726815Y-71142695D02*
X148679196Y-71047457D01*
X148679196Y-71047457D02*
X148631577Y-70999838D01*
X148631577Y-70999838D02*
X148536339Y-70952219D01*
X148536339Y-70952219D02*
X148298244Y-70952219D01*
X148298244Y-70952219D02*
X148155387Y-70999838D01*
X147869672Y-70952219D02*
X147298244Y-70952219D01*
X147583958Y-71952219D02*
X147583958Y-70952219D01*
X149817292Y-70674600D02*
X147303006Y-70674600D01*
X146250625Y-70904600D02*
X147107767Y-72190314D01*
X145917291Y-70952219D02*
X145917291Y-71761742D01*
X145917291Y-71761742D02*
X145869672Y-71856980D01*
X145869672Y-71856980D02*
X145822053Y-71904600D01*
X145822053Y-71904600D02*
X145726815Y-71952219D01*
X145726815Y-71952219D02*
X145536339Y-71952219D01*
X145536339Y-71952219D02*
X145441101Y-71904600D01*
X145441101Y-71904600D02*
X145393482Y-71856980D01*
X145393482Y-71856980D02*
X145345863Y-71761742D01*
X145345863Y-71761742D02*
X145345863Y-70952219D01*
X144869672Y-71952219D02*
X144869672Y-70952219D01*
X144869672Y-70952219D02*
X144488720Y-70952219D01*
X144488720Y-70952219D02*
X144393482Y-70999838D01*
X144393482Y-70999838D02*
X144345863Y-71047457D01*
X144345863Y-71047457D02*
X144298244Y-71142695D01*
X144298244Y-71142695D02*
X144298244Y-71285552D01*
X144298244Y-71285552D02*
X144345863Y-71380790D01*
X144345863Y-71380790D02*
X144393482Y-71428409D01*
X144393482Y-71428409D02*
X144488720Y-71476028D01*
X144488720Y-71476028D02*
X144869672Y-71476028D01*
X143869672Y-71952219D02*
X143869672Y-70952219D01*
X143869672Y-70952219D02*
X143631577Y-70952219D01*
X143631577Y-70952219D02*
X143488720Y-70999838D01*
X143488720Y-70999838D02*
X143393482Y-71095076D01*
X143393482Y-71095076D02*
X143345863Y-71190314D01*
X143345863Y-71190314D02*
X143298244Y-71380790D01*
X143298244Y-71380790D02*
X143298244Y-71523647D01*
X143298244Y-71523647D02*
X143345863Y-71714123D01*
X143345863Y-71714123D02*
X143393482Y-71809361D01*
X143393482Y-71809361D02*
X143488720Y-71904600D01*
X143488720Y-71904600D02*
X143631577Y-71952219D01*
X143631577Y-71952219D02*
X143869672Y-71952219D01*
X142869672Y-71952219D02*
X142869672Y-70952219D01*
%LPC*%
D11*
%TO.C,J1*%
X141400000Y-66400000D03*
D12*
X141400000Y-68940000D03*
X141400000Y-71479999D03*
%TD*%
D13*
%TO.C,U3*%
X152670001Y-75540001D03*
D14*
X151400000Y-75540001D03*
X150130001Y-75540001D03*
%TD*%
D11*
%TO.C,J2*%
X151800000Y-66400000D03*
D12*
X151800000Y-68940000D03*
%TD*%
%LPD*%
M02*
