%TF.GenerationSoftware,KiCad,Pcbnew,8.0.6*%
%TF.CreationDate,2025-02-05T22:59:24+01:00*%
%TF.ProjectId,universal_fan_ctrl,756e6976-6572-4736-916c-5f66616e5f63,rev?*%
%TF.SameCoordinates,Original*%
%TF.FileFunction,Copper,L1,Top*%
%TF.FilePolarity,Positive*%
%FSLAX46Y46*%
G04 Gerber Fmt 4.6, Leading zero omitted, Abs format (unit mm)*
G04 Created by KiCad (PCBNEW 8.0.6) date 2025-02-05 22:59:24*
%MOMM*%
%LPD*%
G01*
G04 APERTURE LIST*
G04 Aperture macros list*
%AMRoundRect*
0 Rectangle with rounded corners*
0 $1 Rounding radius*
0 $2 $3 $4 $5 $6 $7 $8 $9 X,Y pos of 4 corners*
0 Add a 4 corners polygon primitive as box body*
4,1,4,$2,$3,$4,$5,$6,$7,$8,$9,$2,$3,0*
0 Add four circle primitives for the rounded corners*
1,1,$1+$1,$2,$3*
1,1,$1+$1,$4,$5*
1,1,$1+$1,$6,$7*
1,1,$1+$1,$8,$9*
0 Add four rect primitives between the rounded corners*
20,1,$1+$1,$2,$3,$4,$5,0*
20,1,$1+$1,$4,$5,$6,$7,0*
20,1,$1+$1,$6,$7,$8,$9,0*
20,1,$1+$1,$8,$9,$2,$3,0*%
G04 Aperture macros list end*
%TA.AperFunction,SMDPad,CuDef*%
%ADD10RoundRect,0.150000X0.587500X0.150000X-0.587500X0.150000X-0.587500X-0.150000X0.587500X-0.150000X0*%
%TD*%
%TA.AperFunction,SMDPad,CuDef*%
%ADD11RoundRect,0.200000X-0.275000X0.200000X-0.275000X-0.200000X0.275000X-0.200000X0.275000X0.200000X0*%
%TD*%
%TA.AperFunction,ComponentPad*%
%ADD12R,1.700000X1.700000*%
%TD*%
%TA.AperFunction,ComponentPad*%
%ADD13O,1.700000X1.700000*%
%TD*%
%TA.AperFunction,ComponentPad*%
%ADD14R,1.050000X1.500000*%
%TD*%
%TA.AperFunction,ComponentPad*%
%ADD15O,1.050000X1.500000*%
%TD*%
%TA.AperFunction,SMDPad,CuDef*%
%ADD16RoundRect,0.150000X0.150000X-0.587500X0.150000X0.587500X-0.150000X0.587500X-0.150000X-0.587500X0*%
%TD*%
%TA.AperFunction,SMDPad,CuDef*%
%ADD17RoundRect,0.200000X0.200000X0.275000X-0.200000X0.275000X-0.200000X-0.275000X0.200000X-0.275000X0*%
%TD*%
%TA.AperFunction,SMDPad,CuDef*%
%ADD18RoundRect,0.200000X-0.200000X-0.275000X0.200000X-0.275000X0.200000X0.275000X-0.200000X0.275000X0*%
%TD*%
%TA.AperFunction,SMDPad,CuDef*%
%ADD19RoundRect,0.200000X0.275000X-0.200000X0.275000X0.200000X-0.275000X0.200000X-0.275000X-0.200000X0*%
%TD*%
%TA.AperFunction,SMDPad,CuDef*%
%ADD20RoundRect,0.150000X0.825000X0.150000X-0.825000X0.150000X-0.825000X-0.150000X0.825000X-0.150000X0*%
%TD*%
%TA.AperFunction,ViaPad*%
%ADD21C,0.600000*%
%TD*%
%TA.AperFunction,Conductor*%
%ADD22C,0.200000*%
%TD*%
%TA.AperFunction,Conductor*%
%ADD23C,0.500000*%
%TD*%
G04 APERTURE END LIST*
D10*
%TO.P,U1,1,VO*%
%TO.N,+3.3V*%
X147537500Y-67750000D03*
%TO.P,U1,2,VI*%
%TO.N,Net-(J1-Pin_1)*%
X147537500Y-65850000D03*
%TO.P,U1,3,GND*%
%TO.N,GND*%
X145662499Y-66800000D03*
%TD*%
D11*
%TO.P,C1,1*%
%TO.N,Net-(J1-Pin_1)*%
X143900000Y-65775000D03*
%TO.P,C1,2*%
%TO.N,GND*%
X143900000Y-67425000D03*
%TD*%
D12*
%TO.P,J1,1,Pin_1*%
%TO.N,Net-(J1-Pin_1)*%
X141400000Y-66400000D03*
D13*
%TO.P,J1,2,Pin_2*%
%TO.N,GND*%
X141400000Y-68940000D03*
%TO.P,J1,3,Pin_3*%
%TO.N,/UPDI{slash}~{RESET}*%
X141400000Y-71479999D03*
%TD*%
D14*
%TO.P,U3,1,GND*%
%TO.N,GND*%
X152670001Y-75540001D03*
D15*
%TO.P,U3,2,DQ*%
%TO.N,/TEMP_SENS*%
X151400000Y-75540001D03*
%TO.P,U3,3,V_{DD}*%
%TO.N,+3.3V*%
X150130001Y-75540001D03*
%TD*%
D16*
%TO.P,Q1,1,G*%
%TO.N,/FAN_SW*%
X150950000Y-73037500D03*
%TO.P,Q1,2,S*%
%TO.N,GND*%
X152850000Y-73037500D03*
%TO.P,Q1,3,D*%
%TO.N,Net-(J2-Pin_2)*%
X151900000Y-71162499D03*
%TD*%
D11*
%TO.P,R1,1*%
%TO.N,/UPDI{slash}~{RESET}*%
X140900001Y-74275000D03*
%TO.P,R1,2*%
%TO.N,+3.3V*%
X140900001Y-75925000D03*
%TD*%
%TO.P,R5,1*%
%TO.N,/TEMP_SENS*%
X148200000Y-74275000D03*
%TO.P,R5,2*%
%TO.N,+3.3V*%
X148200000Y-75925000D03*
%TD*%
D17*
%TO.P,Rtr1,1*%
%TO.N,/TR*%
X143925000Y-75900000D03*
%TO.P,Rtr1,2*%
%TO.N,+3.3V*%
X142275000Y-75900000D03*
%TD*%
D18*
%TO.P,R4,1*%
%TO.N,GND*%
X142275000Y-74400000D03*
%TO.P,R4,2*%
%TO.N,/TR*%
X143925000Y-74400000D03*
%TD*%
D17*
%TO.P,R3,1*%
%TO.N,GND*%
X146825000Y-74400000D03*
%TO.P,R3,2*%
%TO.N,/MT*%
X145175000Y-74400000D03*
%TD*%
D18*
%TO.P,Rmt1,1*%
%TO.N,/MT*%
X145175000Y-75900000D03*
%TO.P,Rmt1,2*%
%TO.N,+3.3V*%
X146825000Y-75900000D03*
%TD*%
D12*
%TO.P,J2,1,Pin_1*%
%TO.N,Net-(J1-Pin_1)*%
X151800000Y-66400000D03*
D13*
%TO.P,J2,2,Pin_2*%
%TO.N,Net-(J2-Pin_2)*%
X151800000Y-68940000D03*
%TD*%
D19*
%TO.P,C2,1*%
%TO.N,+3.3V*%
X149300000Y-67425000D03*
%TO.P,C2,2*%
%TO.N,GND*%
X149300000Y-65775000D03*
%TD*%
D20*
%TO.P,U2,1,VCC*%
%TO.N,+3.3V*%
X149075000Y-72805000D03*
%TO.P,U2,2,PA6*%
%TO.N,/FAN_SW*%
X149075000Y-71535000D03*
%TO.P,U2,3,PA7*%
%TO.N,/TEMP_SENS*%
X149075000Y-70265000D03*
%TO.P,U2,4,PA1*%
%TO.N,/FAN_SW*%
X149075000Y-68995000D03*
%TO.P,U2,5,PA2*%
%TO.N,/MT*%
X144125000Y-68995000D03*
%TO.P,U2,6,~{RESET}/PA0*%
%TO.N,/UPDI{slash}~{RESET}*%
X144125000Y-70265000D03*
%TO.P,U2,7,PA3*%
%TO.N,/TR*%
X144125000Y-71535000D03*
%TO.P,U2,8,GND*%
%TO.N,GND*%
X144125000Y-72805000D03*
%TD*%
D21*
%TO.N,GND*%
X142400000Y-72800000D03*
X147400000Y-73600000D03*
%TO.N,+3.3V*%
X143100000Y-75200000D03*
X146000000Y-75200000D03*
%TD*%
D22*
%TO.N,/FAN_SW*%
X147400000Y-71000000D02*
X147400000Y-69500000D01*
X147935000Y-71535000D02*
X147400000Y-71000000D01*
X149075000Y-71535000D02*
X147935000Y-71535000D01*
X147400000Y-69500000D02*
X147905000Y-68995000D01*
X147905000Y-68995000D02*
X149075000Y-68995000D01*
%TO.N,+3.3V*%
X146468750Y-68431250D02*
X146468750Y-72800000D01*
X146468750Y-72800000D02*
X146468750Y-73468750D01*
X149075000Y-72805000D02*
X146473750Y-72805000D01*
X146473750Y-72805000D02*
X146468750Y-72800000D01*
X147537500Y-67750000D02*
X147150000Y-67750000D01*
X146000000Y-73937500D02*
X146468750Y-73468750D01*
X147150000Y-67750000D02*
X146468750Y-68431250D01*
%TO.N,GND*%
X142405000Y-72805000D02*
X142400000Y-72800000D01*
D23*
X152850000Y-73037500D02*
X152850000Y-75360002D01*
X152850000Y-75360002D02*
X152670001Y-75540001D01*
D22*
%TO.N,+3.3V*%
X146000000Y-75200000D02*
X146000000Y-73937500D01*
X148975000Y-67750000D02*
X147537500Y-67750000D01*
X142275000Y-75900000D02*
X142400000Y-75900000D01*
X140900001Y-75925000D02*
X142250000Y-75925000D01*
X142250000Y-75925000D02*
X142275000Y-75900000D01*
X146825000Y-75900000D02*
X146700000Y-75900000D01*
X148200000Y-75925000D02*
X146850000Y-75925000D01*
X149300000Y-67425000D02*
X148975000Y-67750000D01*
X146850000Y-75925000D02*
X146825000Y-75900000D01*
X142400000Y-75900000D02*
X143100000Y-75200000D01*
X146700000Y-75900000D02*
X146000000Y-75200000D01*
%TO.N,/FAN_SW*%
X149835000Y-71535000D02*
X149075000Y-71535000D01*
X150950000Y-73037500D02*
X150950000Y-72650000D01*
X150950000Y-72650000D02*
X149835000Y-71535000D01*
%TO.N,/UPDI{slash}~{RESET}*%
X140900001Y-71979998D02*
X141400000Y-71479999D01*
X140900001Y-74275000D02*
X140900001Y-71979998D01*
X142614999Y-70265000D02*
X141400000Y-71479999D01*
X144125000Y-70265000D02*
X142614999Y-70265000D01*
%TO.N,/TEMP_SENS*%
X151400000Y-75540001D02*
X151400000Y-74450000D01*
X150900000Y-71600000D02*
X150900000Y-71400000D01*
X151400000Y-74100000D02*
X151900000Y-73600000D01*
X151900000Y-73600000D02*
X151900000Y-72600000D01*
X151400000Y-74450000D02*
X151225000Y-74275000D01*
X149075000Y-70265000D02*
X149765000Y-70265000D01*
X149765000Y-70265000D02*
X150900000Y-71400000D01*
X151400000Y-75540001D02*
X151400000Y-74100000D01*
X151225000Y-74275000D02*
X151400000Y-74100000D01*
X148200000Y-74275000D02*
X151225000Y-74275000D01*
X151900000Y-72600000D02*
X150900000Y-71600000D01*
%TO.N,Net-(J1-Pin_1)*%
X142025000Y-65775000D02*
X141400000Y-66400000D01*
X143975000Y-65850000D02*
X143900000Y-65775000D01*
X143900000Y-65775000D02*
X142025000Y-65775000D01*
X147537500Y-65850000D02*
X143975000Y-65850000D01*
D23*
%TO.N,Net-(J2-Pin_2)*%
X151900000Y-69040000D02*
X151800000Y-68940000D01*
X151900000Y-71162499D02*
X151900000Y-69040000D01*
D22*
%TO.N,/MT*%
X145175000Y-74125000D02*
X145900000Y-73400000D01*
X145175000Y-74400000D02*
X145175000Y-74125000D01*
X144795000Y-68995000D02*
X145900000Y-70100000D01*
X145900000Y-73400000D02*
X145900000Y-70100000D01*
X145175000Y-75900000D02*
X145175000Y-74400000D01*
X144125000Y-68995000D02*
X144795000Y-68995000D01*
%TO.N,/TR*%
X143925000Y-73975000D02*
X144400000Y-73500000D01*
X145400000Y-72100000D02*
X144835000Y-71535000D01*
X145400000Y-73300000D02*
X145400000Y-72100000D01*
X143925000Y-74400000D02*
X143925000Y-73975000D01*
X143925000Y-75900000D02*
X143925000Y-74400000D01*
X144835000Y-71535000D02*
X144125000Y-71535000D01*
X144400000Y-73500000D02*
X145200000Y-73500000D01*
X145200000Y-73500000D02*
X145400000Y-73300000D01*
%TD*%
%TA.AperFunction,Conductor*%
%TO.N,GND*%
G36*
X150419216Y-72544187D02*
G01*
X150420504Y-72545475D01*
X150448281Y-72599992D01*
X150449500Y-72615479D01*
X150449500Y-73658260D01*
X150457441Y-73712766D01*
X150459427Y-73726394D01*
X150476761Y-73761850D01*
X150510802Y-73831483D01*
X150510803Y-73831484D01*
X150511065Y-73832019D01*
X150519636Y-73892601D01*
X150490961Y-73946651D01*
X150435993Y-73973524D01*
X150422124Y-73974500D01*
X148933951Y-73974500D01*
X148875760Y-73955593D01*
X148845742Y-73920447D01*
X148803050Y-73836658D01*
X148713342Y-73746950D01*
X148600304Y-73689354D01*
X148600305Y-73689354D01*
X148506522Y-73674500D01*
X147893479Y-73674500D01*
X147893476Y-73674501D01*
X147799700Y-73689352D01*
X147799695Y-73689354D01*
X147686659Y-73746949D01*
X147596949Y-73836659D01*
X147539354Y-73949695D01*
X147524500Y-74043477D01*
X147524500Y-74506520D01*
X147524501Y-74506523D01*
X147539352Y-74600299D01*
X147539354Y-74600304D01*
X147596950Y-74713342D01*
X147686658Y-74803050D01*
X147799696Y-74860646D01*
X147893481Y-74875500D01*
X148506518Y-74875499D01*
X148506520Y-74875499D01*
X148506521Y-74875498D01*
X148553411Y-74868072D01*
X148600299Y-74860647D01*
X148600299Y-74860646D01*
X148600304Y-74860646D01*
X148713342Y-74803050D01*
X148803050Y-74713342D01*
X148845742Y-74629553D01*
X148889006Y-74586290D01*
X148933951Y-74575500D01*
X149605254Y-74575500D01*
X149663445Y-74594407D01*
X149699409Y-74643907D01*
X149699409Y-74705093D01*
X149670451Y-74747520D01*
X149670961Y-74748030D01*
X149668258Y-74750732D01*
X149668054Y-74751032D01*
X149667524Y-74751466D01*
X149566472Y-74852518D01*
X149566469Y-74852522D01*
X149487075Y-74971341D01*
X149487069Y-74971352D01*
X149432382Y-75103379D01*
X149432382Y-75103381D01*
X149404501Y-75243543D01*
X149404501Y-75836458D01*
X149432382Y-75976620D01*
X149432382Y-75976622D01*
X149487069Y-76108649D01*
X149487075Y-76108660D01*
X149519054Y-76156519D01*
X149566469Y-76227480D01*
X149667522Y-76328533D01*
X149689451Y-76343186D01*
X149727330Y-76391235D01*
X149729732Y-76452373D01*
X149695739Y-76503246D01*
X149638336Y-76524424D01*
X149634449Y-76524500D01*
X148880260Y-76524500D01*
X148822069Y-76505593D01*
X148786105Y-76456093D01*
X148786105Y-76394907D01*
X148800166Y-76367311D01*
X148803047Y-76363344D01*
X148803050Y-76363342D01*
X148860646Y-76250304D01*
X148875500Y-76156519D01*
X148875499Y-75693482D01*
X148870189Y-75659953D01*
X148860647Y-75599700D01*
X148860646Y-75599698D01*
X148860646Y-75599696D01*
X148803050Y-75486658D01*
X148713342Y-75396950D01*
X148600304Y-75339354D01*
X148600305Y-75339354D01*
X148506522Y-75324500D01*
X147893479Y-75324500D01*
X147893476Y-75324501D01*
X147799700Y-75339352D01*
X147799695Y-75339354D01*
X147686659Y-75396949D01*
X147596949Y-75486659D01*
X147588684Y-75502880D01*
X147545418Y-75546143D01*
X147484986Y-75555713D01*
X147430470Y-75527933D01*
X147412266Y-75502877D01*
X147410646Y-75499698D01*
X147410646Y-75499696D01*
X147353050Y-75386658D01*
X147263342Y-75296950D01*
X147150304Y-75239354D01*
X147150305Y-75239354D01*
X147056522Y-75224500D01*
X146594953Y-75224500D01*
X146536762Y-75205593D01*
X146500798Y-75156093D01*
X146496963Y-75139601D01*
X146485165Y-75057543D01*
X146425377Y-74926627D01*
X146331128Y-74817857D01*
X146331127Y-74817856D01*
X146326491Y-74812506D01*
X146328524Y-74810743D01*
X146303067Y-74768505D01*
X146300500Y-74746105D01*
X146300500Y-74102978D01*
X146319407Y-74044787D01*
X146329490Y-74032980D01*
X146709210Y-73653261D01*
X146748772Y-73584738D01*
X146769250Y-73508312D01*
X146769250Y-73429188D01*
X146769250Y-73204500D01*
X146788157Y-73146309D01*
X146837657Y-73110345D01*
X146868250Y-73105500D01*
X147871635Y-73105500D01*
X147929826Y-73124407D01*
X147955610Y-73155108D01*
X147956035Y-73154806D01*
X147959884Y-73160197D01*
X147960576Y-73161020D01*
X147960802Y-73161483D01*
X148043517Y-73244198D01*
X148074898Y-73259539D01*
X148148604Y-73295572D01*
X148148605Y-73295572D01*
X148148607Y-73295573D01*
X148216740Y-73305500D01*
X148216743Y-73305500D01*
X149933257Y-73305500D01*
X149933260Y-73305500D01*
X150001393Y-73295573D01*
X150106483Y-73244198D01*
X150189198Y-73161483D01*
X150240573Y-73056393D01*
X150250500Y-72988260D01*
X150250500Y-72621740D01*
X150250499Y-72621736D01*
X150250472Y-72621359D01*
X150250500Y-72621245D01*
X150250500Y-72618158D01*
X150251261Y-72618158D01*
X150265116Y-72561952D01*
X150311882Y-72522499D01*
X150372907Y-72518068D01*
X150419216Y-72544187D01*
G37*
%TD.AperFunction*%
%TA.AperFunction,Conductor*%
G36*
X145469504Y-70094475D02*
G01*
X145570504Y-70195475D01*
X145598281Y-70249992D01*
X145599500Y-70265479D01*
X145599500Y-71635521D01*
X145580593Y-71693712D01*
X145531093Y-71729676D01*
X145469907Y-71729676D01*
X145430496Y-71705525D01*
X145329496Y-71604525D01*
X145301719Y-71550008D01*
X145300500Y-71534521D01*
X145300500Y-71351743D01*
X145299441Y-71344475D01*
X145290573Y-71283607D01*
X145285910Y-71274069D01*
X145242128Y-71184511D01*
X145239198Y-71178517D01*
X145156483Y-71095802D01*
X145156481Y-71095801D01*
X145051395Y-71044427D01*
X145018016Y-71039564D01*
X144983260Y-71034500D01*
X143266740Y-71034500D01*
X143232673Y-71039463D01*
X143198604Y-71044427D01*
X143093518Y-71095801D01*
X143010801Y-71178518D01*
X142959427Y-71283604D01*
X142959368Y-71284011D01*
X142949500Y-71351740D01*
X142949500Y-71718260D01*
X142956118Y-71763682D01*
X142959427Y-71786395D01*
X143002514Y-71874529D01*
X143010802Y-71891483D01*
X143093517Y-71974198D01*
X143147285Y-72000483D01*
X143198604Y-72025572D01*
X143198605Y-72025572D01*
X143198607Y-72025573D01*
X143266740Y-72035500D01*
X144869521Y-72035500D01*
X144927712Y-72054407D01*
X144939525Y-72064496D01*
X145070504Y-72195475D01*
X145098281Y-72249992D01*
X145099500Y-72265479D01*
X145099500Y-73100500D01*
X145080593Y-73158691D01*
X145031093Y-73194655D01*
X145000500Y-73199500D01*
X144360435Y-73199500D01*
X144284011Y-73219978D01*
X144284007Y-73219980D01*
X144215489Y-73259539D01*
X143779523Y-73695504D01*
X143725007Y-73723281D01*
X143709525Y-73724500D01*
X143693480Y-73724500D01*
X143693477Y-73724501D01*
X143599699Y-73739352D01*
X143599695Y-73739354D01*
X143486659Y-73796949D01*
X143396949Y-73886659D01*
X143339354Y-73999695D01*
X143324500Y-74093478D01*
X143324500Y-74612041D01*
X143305593Y-74670232D01*
X143256093Y-74706196D01*
X143197609Y-74707030D01*
X143171961Y-74699500D01*
X143028039Y-74699500D01*
X143028035Y-74699500D01*
X142889949Y-74740046D01*
X142889942Y-74740049D01*
X142768873Y-74817855D01*
X142674622Y-74926628D01*
X142614834Y-75057543D01*
X142603038Y-75139589D01*
X142576042Y-75194497D01*
X142521928Y-75223050D01*
X142505046Y-75224500D01*
X142043479Y-75224500D01*
X142043476Y-75224501D01*
X141949700Y-75239352D01*
X141949695Y-75239354D01*
X141836659Y-75296949D01*
X141746949Y-75386659D01*
X141687732Y-75502877D01*
X141644467Y-75546141D01*
X141584035Y-75555712D01*
X141529519Y-75527934D01*
X141511317Y-75502880D01*
X141503051Y-75486658D01*
X141413343Y-75396950D01*
X141300305Y-75339354D01*
X141300306Y-75339354D01*
X141206523Y-75324500D01*
X140593480Y-75324500D01*
X140593477Y-75324501D01*
X140499701Y-75339352D01*
X140499696Y-75339354D01*
X140386660Y-75396949D01*
X140386659Y-75396950D01*
X140296951Y-75486658D01*
X140288686Y-75502880D01*
X140287709Y-75504797D01*
X140244443Y-75548061D01*
X140184011Y-75557631D01*
X140129495Y-75529852D01*
X140101719Y-75475335D01*
X140100500Y-75459850D01*
X140100500Y-74740149D01*
X140119407Y-74681958D01*
X140168907Y-74645994D01*
X140230093Y-74645994D01*
X140279593Y-74681958D01*
X140287705Y-74695196D01*
X140296951Y-74713342D01*
X140386659Y-74803050D01*
X140499697Y-74860646D01*
X140593482Y-74875500D01*
X141206519Y-74875499D01*
X141206521Y-74875499D01*
X141206522Y-74875498D01*
X141253412Y-74868072D01*
X141300300Y-74860647D01*
X141300300Y-74860646D01*
X141300305Y-74860646D01*
X141413343Y-74803050D01*
X141503051Y-74713342D01*
X141560647Y-74600304D01*
X141575501Y-74506519D01*
X141575500Y-74043482D01*
X141568566Y-73999696D01*
X141560648Y-73949700D01*
X141560647Y-73949698D01*
X141560647Y-73949696D01*
X141503051Y-73836658D01*
X141413343Y-73746950D01*
X141300305Y-73689354D01*
X141300307Y-73689354D01*
X141284011Y-73686773D01*
X141229495Y-73658993D01*
X141201719Y-73604476D01*
X141200501Y-73588992D01*
X141200501Y-72625162D01*
X141219408Y-72566971D01*
X141268908Y-72531007D01*
X141309205Y-72526639D01*
X141399997Y-72535582D01*
X141400000Y-72535582D01*
X141400003Y-72535582D01*
X141605929Y-72515300D01*
X141605934Y-72515299D01*
X141605941Y-72515297D01*
X141803954Y-72455231D01*
X141986450Y-72357684D01*
X142146410Y-72226409D01*
X142277685Y-72066449D01*
X142375232Y-71883953D01*
X142435300Y-71685933D01*
X142435301Y-71685928D01*
X142455583Y-71480002D01*
X142455583Y-71479995D01*
X142435301Y-71274069D01*
X142435300Y-71274064D01*
X142408134Y-71184511D01*
X142375232Y-71076045D01*
X142358880Y-71045454D01*
X142348123Y-70985222D01*
X142374824Y-70930170D01*
X142376128Y-70928841D01*
X142710474Y-70594496D01*
X142764990Y-70566719D01*
X142780477Y-70565500D01*
X142921635Y-70565500D01*
X142979826Y-70584407D01*
X143005610Y-70615108D01*
X143006035Y-70614806D01*
X143009884Y-70620197D01*
X143010576Y-70621020D01*
X143010802Y-70621483D01*
X143093517Y-70704198D01*
X143147285Y-70730483D01*
X143198604Y-70755572D01*
X143198605Y-70755572D01*
X143198607Y-70755573D01*
X143266740Y-70765500D01*
X143266743Y-70765500D01*
X144983257Y-70765500D01*
X144983260Y-70765500D01*
X145051393Y-70755573D01*
X145156483Y-70704198D01*
X145239198Y-70621483D01*
X145290573Y-70516393D01*
X145300500Y-70448260D01*
X145300500Y-70164479D01*
X145319407Y-70106288D01*
X145368907Y-70070324D01*
X145430093Y-70070324D01*
X145469504Y-70094475D01*
G37*
%TD.AperFunction*%
%TA.AperFunction,Conductor*%
G36*
X143352292Y-65119407D02*
G01*
X143388256Y-65168907D01*
X143388256Y-65230093D01*
X143364106Y-65269501D01*
X143296950Y-65336658D01*
X143254257Y-65420446D01*
X143210994Y-65463710D01*
X143166049Y-65474500D01*
X142493608Y-65474500D01*
X142435417Y-65455593D01*
X142411293Y-65430502D01*
X142394554Y-65405451D01*
X142394552Y-65405448D01*
X142394548Y-65405445D01*
X142328233Y-65361134D01*
X142328231Y-65361133D01*
X142328228Y-65361132D01*
X142328227Y-65361132D01*
X142269758Y-65349501D01*
X142269748Y-65349500D01*
X140530252Y-65349500D01*
X140530251Y-65349500D01*
X140530241Y-65349501D01*
X140471772Y-65361132D01*
X140471766Y-65361134D01*
X140405451Y-65405445D01*
X140405445Y-65405451D01*
X140361134Y-65471766D01*
X140361132Y-65471772D01*
X140349501Y-65530241D01*
X140349500Y-65530253D01*
X140349500Y-67269746D01*
X140349501Y-67269758D01*
X140357666Y-67310801D01*
X140361133Y-67328231D01*
X140405448Y-67394552D01*
X140471769Y-67438867D01*
X140516231Y-67447711D01*
X140530241Y-67450498D01*
X140530246Y-67450498D01*
X140530252Y-67450500D01*
X140530253Y-67450500D01*
X142269747Y-67450500D01*
X142269748Y-67450500D01*
X142328231Y-67438867D01*
X142394552Y-67394552D01*
X142438867Y-67328231D01*
X142450500Y-67269748D01*
X142450500Y-66174500D01*
X142469407Y-66116309D01*
X142518907Y-66080345D01*
X142549500Y-66075500D01*
X143166049Y-66075500D01*
X143224240Y-66094407D01*
X143254257Y-66129552D01*
X143296950Y-66213342D01*
X143386658Y-66303050D01*
X143499696Y-66360646D01*
X143593481Y-66375500D01*
X144206518Y-66375499D01*
X144206520Y-66375499D01*
X144206521Y-66375498D01*
X144253411Y-66368072D01*
X144300299Y-66360647D01*
X144300299Y-66360646D01*
X144300304Y-66360646D01*
X144413342Y-66303050D01*
X144503050Y-66213342D01*
X144507528Y-66204554D01*
X144550793Y-66161290D01*
X144595737Y-66150500D01*
X146571635Y-66150500D01*
X146629826Y-66169407D01*
X146655610Y-66200108D01*
X146656035Y-66199806D01*
X146659884Y-66205197D01*
X146660576Y-66206020D01*
X146660802Y-66206483D01*
X146743517Y-66289198D01*
X146771852Y-66303050D01*
X146848604Y-66340572D01*
X146848605Y-66340572D01*
X146848607Y-66340573D01*
X146916740Y-66350500D01*
X146916743Y-66350500D01*
X148158257Y-66350500D01*
X148158260Y-66350500D01*
X148226393Y-66340573D01*
X148331483Y-66289198D01*
X148414198Y-66206483D01*
X148465573Y-66101393D01*
X148475500Y-66033260D01*
X148475500Y-65666740D01*
X148465573Y-65598607D01*
X148432157Y-65530253D01*
X150749500Y-65530253D01*
X150749500Y-67269746D01*
X150749501Y-67269758D01*
X150757666Y-67310801D01*
X150761133Y-67328231D01*
X150805448Y-67394552D01*
X150871769Y-67438867D01*
X150916231Y-67447711D01*
X150930241Y-67450498D01*
X150930246Y-67450498D01*
X150930252Y-67450500D01*
X150930253Y-67450500D01*
X152669747Y-67450500D01*
X152669748Y-67450500D01*
X152728231Y-67438867D01*
X152794552Y-67394552D01*
X152838867Y-67328231D01*
X152850500Y-67269748D01*
X152850500Y-65530252D01*
X152838867Y-65471769D01*
X152794552Y-65405448D01*
X152794548Y-65405445D01*
X152728233Y-65361134D01*
X152728231Y-65361133D01*
X152728228Y-65361132D01*
X152728227Y-65361132D01*
X152669758Y-65349501D01*
X152669748Y-65349500D01*
X150930252Y-65349500D01*
X150930251Y-65349500D01*
X150930241Y-65349501D01*
X150871772Y-65361132D01*
X150871766Y-65361134D01*
X150805451Y-65405445D01*
X150805445Y-65405451D01*
X150761134Y-65471766D01*
X150761132Y-65471772D01*
X150749501Y-65530241D01*
X150749500Y-65530253D01*
X148432157Y-65530253D01*
X148414198Y-65493517D01*
X148331483Y-65410802D01*
X148331481Y-65410801D01*
X148226395Y-65359427D01*
X148199139Y-65355456D01*
X148158260Y-65349500D01*
X146916740Y-65349500D01*
X146882673Y-65354463D01*
X146848604Y-65359427D01*
X146743518Y-65410801D01*
X146660801Y-65493518D01*
X146660577Y-65493978D01*
X146660180Y-65494387D01*
X146656035Y-65500194D01*
X146655164Y-65499572D01*
X146618035Y-65537953D01*
X146571635Y-65549500D01*
X144661008Y-65549500D01*
X144602817Y-65530593D01*
X144566853Y-65481093D01*
X144563227Y-65465987D01*
X144560647Y-65449699D01*
X144560646Y-65449697D01*
X144560646Y-65449696D01*
X144503050Y-65336658D01*
X144435893Y-65269501D01*
X144408118Y-65214987D01*
X144417689Y-65154555D01*
X144460954Y-65111290D01*
X144505899Y-65100500D01*
X153400500Y-65100500D01*
X153458691Y-65119407D01*
X153494655Y-65168907D01*
X153499500Y-65199500D01*
X153499500Y-74567706D01*
X153480593Y-74625897D01*
X153431093Y-74661861D01*
X153369907Y-74661861D01*
X153345499Y-74650022D01*
X153273036Y-74601604D01*
X153273037Y-74601604D01*
X153214701Y-74590001D01*
X152870002Y-74590001D01*
X152870001Y-74590002D01*
X152870001Y-75222458D01*
X152814746Y-75190557D01*
X152719371Y-75165001D01*
X152620631Y-75165001D01*
X152525256Y-75190557D01*
X152470001Y-75222458D01*
X152470001Y-74590002D01*
X152470000Y-74590001D01*
X152125300Y-74590001D01*
X152066964Y-74601604D01*
X152000811Y-74645807D01*
X152000806Y-74645812D01*
X151964304Y-74700441D01*
X151916253Y-74738320D01*
X151855115Y-74740722D01*
X151826987Y-74727754D01*
X151744498Y-74672636D01*
X151706619Y-74624586D01*
X151700500Y-74590321D01*
X151700500Y-74265478D01*
X151719407Y-74207287D01*
X151729490Y-74195480D01*
X152140460Y-73784511D01*
X152175108Y-73724500D01*
X152180020Y-73715992D01*
X152180020Y-73715990D01*
X152180022Y-73715988D01*
X152200500Y-73639562D01*
X152200500Y-73560438D01*
X152200500Y-72560438D01*
X152188575Y-72515932D01*
X152188405Y-72515298D01*
X152188405Y-72515297D01*
X152184213Y-72499655D01*
X152180022Y-72484012D01*
X152140460Y-72415489D01*
X151994471Y-72269500D01*
X151966696Y-72214986D01*
X151976267Y-72154554D01*
X152019532Y-72111289D01*
X152064477Y-72100499D01*
X152083257Y-72100499D01*
X152083260Y-72100499D01*
X152151393Y-72090572D01*
X152256483Y-72039197D01*
X152339198Y-71956482D01*
X152390573Y-71851392D01*
X152400500Y-71783259D01*
X152400500Y-70541739D01*
X152390573Y-70473606D01*
X152378182Y-70448260D01*
X152360559Y-70412210D01*
X152350500Y-70368730D01*
X152350500Y-69894012D01*
X152369407Y-69835821D01*
X152386695Y-69817484D01*
X152439160Y-69774427D01*
X152546410Y-69686410D01*
X152677685Y-69526450D01*
X152775232Y-69343954D01*
X152835300Y-69145934D01*
X152835301Y-69145929D01*
X152855583Y-68940003D01*
X152855583Y-68939996D01*
X152835301Y-68734070D01*
X152835300Y-68734065D01*
X152808341Y-68645194D01*
X152775232Y-68536046D01*
X152677685Y-68353550D01*
X152646262Y-68315261D01*
X152546414Y-68193595D01*
X152546410Y-68193590D01*
X152541058Y-68189198D01*
X152386452Y-68062316D01*
X152203954Y-67964768D01*
X152005934Y-67904699D01*
X152005929Y-67904698D01*
X151800003Y-67884417D01*
X151799997Y-67884417D01*
X151594070Y-67904698D01*
X151594065Y-67904699D01*
X151396045Y-67964768D01*
X151213547Y-68062316D01*
X151053595Y-68193585D01*
X151053585Y-68193595D01*
X150922316Y-68353547D01*
X150824768Y-68536045D01*
X150764699Y-68734065D01*
X150764698Y-68734070D01*
X150744417Y-68939996D01*
X150744417Y-68940003D01*
X150764698Y-69145929D01*
X150764699Y-69145934D01*
X150824768Y-69343954D01*
X150922316Y-69526452D01*
X151053302Y-69686059D01*
X151053590Y-69686410D01*
X151053595Y-69686414D01*
X151213547Y-69817683D01*
X151213548Y-69817683D01*
X151213550Y-69817685D01*
X151395975Y-69915194D01*
X151397169Y-69915832D01*
X151439575Y-69959938D01*
X151449500Y-70003142D01*
X151449500Y-70368730D01*
X151439441Y-70412210D01*
X151409427Y-70473603D01*
X151399500Y-70541742D01*
X151399500Y-71435521D01*
X151380593Y-71493712D01*
X151331093Y-71529676D01*
X151269907Y-71529676D01*
X151230496Y-71505525D01*
X151229496Y-71504525D01*
X151201719Y-71450008D01*
X151200500Y-71434521D01*
X151200500Y-71360437D01*
X151200499Y-71360435D01*
X151196222Y-71344475D01*
X151180021Y-71284011D01*
X151140460Y-71215489D01*
X151084511Y-71159539D01*
X151084511Y-71159540D01*
X150279496Y-70354525D01*
X150251719Y-70300008D01*
X150250500Y-70284521D01*
X150250500Y-70081743D01*
X150250500Y-70081740D01*
X150240573Y-70013607D01*
X150221604Y-69974806D01*
X150192606Y-69915489D01*
X150189198Y-69908517D01*
X150106483Y-69825802D01*
X150106481Y-69825801D01*
X150001395Y-69774427D01*
X149974139Y-69770456D01*
X149933260Y-69764500D01*
X148216740Y-69764500D01*
X148182673Y-69769463D01*
X148148604Y-69774427D01*
X148043518Y-69825801D01*
X147960801Y-69908518D01*
X147909427Y-70013604D01*
X147907834Y-70024538D01*
X147899500Y-70081740D01*
X147899500Y-70448260D01*
X147903193Y-70473606D01*
X147909427Y-70516395D01*
X147947609Y-70594496D01*
X147960802Y-70621483D01*
X148043517Y-70704198D01*
X148097285Y-70730483D01*
X148148604Y-70755572D01*
X148148605Y-70755572D01*
X148148607Y-70755573D01*
X148216740Y-70765500D01*
X149799521Y-70765500D01*
X149857712Y-70784407D01*
X149869525Y-70794496D01*
X149940525Y-70865496D01*
X149968302Y-70920013D01*
X149958731Y-70980445D01*
X149915466Y-71023710D01*
X149870521Y-71034500D01*
X148216740Y-71034500D01*
X148182673Y-71039463D01*
X148148604Y-71044427D01*
X148043511Y-71095804D01*
X148040135Y-71098215D01*
X147981788Y-71116635D01*
X147923758Y-71097241D01*
X147912613Y-71087642D01*
X147729496Y-70904525D01*
X147701719Y-70850008D01*
X147700500Y-70834521D01*
X147700500Y-69665479D01*
X147719407Y-69607288D01*
X147729496Y-69595476D01*
X147897141Y-69427830D01*
X147951658Y-69400052D01*
X148012090Y-69409623D01*
X148037145Y-69427826D01*
X148043517Y-69434198D01*
X148097186Y-69460435D01*
X148148604Y-69485572D01*
X148148605Y-69485572D01*
X148148607Y-69485573D01*
X148216740Y-69495500D01*
X148216743Y-69495500D01*
X149933257Y-69495500D01*
X149933260Y-69495500D01*
X150001393Y-69485573D01*
X150106483Y-69434198D01*
X150189198Y-69351483D01*
X150240573Y-69246393D01*
X150250500Y-69178260D01*
X150250500Y-68811740D01*
X150240573Y-68743607D01*
X150238809Y-68739999D01*
X150189198Y-68638518D01*
X150189198Y-68638517D01*
X150106483Y-68555802D01*
X150071169Y-68538538D01*
X150001395Y-68504427D01*
X149974139Y-68500456D01*
X149933260Y-68494500D01*
X148216740Y-68494500D01*
X148182673Y-68499463D01*
X148148604Y-68504427D01*
X148043518Y-68555801D01*
X147960801Y-68638518D01*
X147960577Y-68638978D01*
X147960180Y-68639387D01*
X147956035Y-68645194D01*
X147955164Y-68644572D01*
X147918035Y-68682953D01*
X147871635Y-68694500D01*
X147865435Y-68694500D01*
X147789011Y-68714978D01*
X147755797Y-68734155D01*
X147745674Y-68740000D01*
X147739428Y-68743606D01*
X147739424Y-68743608D01*
X147720492Y-68754537D01*
X147215489Y-69259540D01*
X147215488Y-69259539D01*
X147159539Y-69315489D01*
X147119980Y-69384007D01*
X147119978Y-69384011D01*
X147099500Y-69460435D01*
X147099500Y-71039564D01*
X147119977Y-71115985D01*
X147119979Y-71115990D01*
X147145121Y-71159538D01*
X147156079Y-71178517D01*
X147159540Y-71184511D01*
X147694540Y-71719511D01*
X147694539Y-71719511D01*
X147750489Y-71775460D01*
X147819005Y-71815018D01*
X147819006Y-71815018D01*
X147819011Y-71815021D01*
X147895438Y-71835500D01*
X147895441Y-71835500D01*
X147895635Y-71835552D01*
X147946949Y-71868877D01*
X147958951Y-71887698D01*
X147960799Y-71891478D01*
X147960800Y-71891480D01*
X147960801Y-71891481D01*
X147960802Y-71891483D01*
X148043517Y-71974198D01*
X148097285Y-72000483D01*
X148148604Y-72025572D01*
X148148605Y-72025572D01*
X148148607Y-72025573D01*
X148216740Y-72035500D01*
X149869521Y-72035500D01*
X149927712Y-72054407D01*
X149939525Y-72064496D01*
X150010812Y-72135783D01*
X150038589Y-72190300D01*
X150029018Y-72250732D01*
X149985753Y-72293997D01*
X149936842Y-72303886D01*
X149936842Y-72304500D01*
X149933806Y-72304500D01*
X149933663Y-72304529D01*
X149933262Y-72304500D01*
X149933260Y-72304500D01*
X148216740Y-72304500D01*
X148182673Y-72309463D01*
X148148604Y-72314427D01*
X148043518Y-72365801D01*
X147960801Y-72448518D01*
X147960577Y-72448978D01*
X147960180Y-72449387D01*
X147956035Y-72455194D01*
X147955164Y-72454572D01*
X147918035Y-72492953D01*
X147871635Y-72504500D01*
X146868250Y-72504500D01*
X146810059Y-72485593D01*
X146774095Y-72436093D01*
X146769250Y-72405500D01*
X146769250Y-68596729D01*
X146788157Y-68538538D01*
X146798246Y-68526725D01*
X147045475Y-68279496D01*
X147099992Y-68251719D01*
X147115479Y-68250500D01*
X148158257Y-68250500D01*
X148158260Y-68250500D01*
X148226393Y-68240573D01*
X148331483Y-68189198D01*
X148414198Y-68106483D01*
X148414423Y-68106021D01*
X148414819Y-68105612D01*
X148418965Y-68099806D01*
X148419835Y-68100427D01*
X148456965Y-68062047D01*
X148503365Y-68050500D01*
X149014563Y-68050500D01*
X149014563Y-68050499D01*
X149072061Y-68035092D01*
X149095274Y-68028873D01*
X149120898Y-68025499D01*
X149606521Y-68025499D01*
X149606522Y-68025498D01*
X149653411Y-68018072D01*
X149700299Y-68010647D01*
X149700299Y-68010646D01*
X149700304Y-68010646D01*
X149813342Y-67953050D01*
X149903050Y-67863342D01*
X149960646Y-67750304D01*
X149975500Y-67656519D01*
X149975499Y-67193482D01*
X149960646Y-67099696D01*
X149903050Y-66986658D01*
X149813342Y-66896950D01*
X149700304Y-66839354D01*
X149700305Y-66839354D01*
X149606522Y-66824500D01*
X148993479Y-66824500D01*
X148993476Y-66824501D01*
X148899700Y-66839352D01*
X148899695Y-66839354D01*
X148786659Y-66896949D01*
X148696949Y-66986659D01*
X148639354Y-67099695D01*
X148624500Y-67193477D01*
X148624500Y-67193479D01*
X148624500Y-67193481D01*
X148624500Y-67310802D01*
X148624501Y-67350499D01*
X148605594Y-67408690D01*
X148556094Y-67444654D01*
X148525501Y-67449500D01*
X148503365Y-67449500D01*
X148445174Y-67430593D01*
X148419389Y-67399891D01*
X148418965Y-67400194D01*
X148415115Y-67394802D01*
X148414423Y-67393978D01*
X148414198Y-67393518D01*
X148414198Y-67393517D01*
X148331483Y-67310802D01*
X148331481Y-67310801D01*
X148226395Y-67259427D01*
X148199139Y-67255456D01*
X148158260Y-67249500D01*
X146916740Y-67249500D01*
X146882673Y-67254463D01*
X146848604Y-67259427D01*
X146743518Y-67310801D01*
X146660801Y-67393518D01*
X146609427Y-67498604D01*
X146599500Y-67566743D01*
X146599500Y-67834521D01*
X146580593Y-67892712D01*
X146570504Y-67904525D01*
X146284239Y-68190790D01*
X146284238Y-68190789D01*
X146228289Y-68246739D01*
X146188730Y-68315257D01*
X146188728Y-68315261D01*
X146168250Y-68391685D01*
X146168250Y-69704271D01*
X146149343Y-69762462D01*
X146099843Y-69798426D01*
X146038657Y-69798426D01*
X145999246Y-69774275D01*
X145329496Y-69104525D01*
X145301719Y-69050008D01*
X145300500Y-69034521D01*
X145300500Y-68811743D01*
X145300500Y-68811740D01*
X145290573Y-68743607D01*
X145288809Y-68739999D01*
X145239198Y-68638518D01*
X145239198Y-68638517D01*
X145156483Y-68555802D01*
X145121169Y-68538538D01*
X145051395Y-68504427D01*
X145024139Y-68500456D01*
X144983260Y-68494500D01*
X143266740Y-68494500D01*
X143232673Y-68499463D01*
X143198604Y-68504427D01*
X143093518Y-68555801D01*
X143010801Y-68638518D01*
X142959427Y-68743604D01*
X142957834Y-68754537D01*
X142949500Y-68811740D01*
X142949500Y-69178260D01*
X142956118Y-69223682D01*
X142959427Y-69246395D01*
X143005237Y-69340099D01*
X143010802Y-69351483D01*
X143093517Y-69434198D01*
X143147186Y-69460435D01*
X143198604Y-69485572D01*
X143198605Y-69485572D01*
X143198607Y-69485573D01*
X143266740Y-69495500D01*
X144829521Y-69495500D01*
X144887712Y-69514407D01*
X144899525Y-69524496D01*
X144970525Y-69595496D01*
X144998302Y-69650013D01*
X144988731Y-69710445D01*
X144945466Y-69753710D01*
X144900521Y-69764500D01*
X143266740Y-69764500D01*
X143232673Y-69769463D01*
X143198604Y-69774427D01*
X143093518Y-69825801D01*
X143010801Y-69908518D01*
X143010577Y-69908978D01*
X143010180Y-69909387D01*
X143006035Y-69915194D01*
X143005164Y-69914572D01*
X142968035Y-69952953D01*
X142921635Y-69964500D01*
X142575434Y-69964500D01*
X142499010Y-69984978D01*
X142449427Y-70013606D01*
X142449423Y-70013608D01*
X142430490Y-70024538D01*
X142430488Y-70024539D01*
X141951214Y-70503811D01*
X141896698Y-70531588D01*
X141836266Y-70522017D01*
X141834583Y-70521138D01*
X141803954Y-70504767D01*
X141605934Y-70444698D01*
X141605929Y-70444697D01*
X141400003Y-70424416D01*
X141399997Y-70424416D01*
X141194070Y-70444697D01*
X141194065Y-70444698D01*
X140996045Y-70504767D01*
X140813547Y-70602315D01*
X140653595Y-70733584D01*
X140653585Y-70733594D01*
X140522316Y-70893546D01*
X140424768Y-71076044D01*
X140364699Y-71274064D01*
X140364698Y-71274069D01*
X140344417Y-71479995D01*
X140344417Y-71480002D01*
X140364698Y-71685928D01*
X140364699Y-71685933D01*
X140395174Y-71786395D01*
X140424768Y-71883953D01*
X140522315Y-72066449D01*
X140577028Y-72133117D01*
X140599329Y-72190093D01*
X140599501Y-72195922D01*
X140599501Y-73588992D01*
X140580594Y-73647183D01*
X140531094Y-73683147D01*
X140515988Y-73686773D01*
X140499700Y-73689352D01*
X140499696Y-73689354D01*
X140386660Y-73746949D01*
X140296951Y-73836658D01*
X140287709Y-73854797D01*
X140244443Y-73898061D01*
X140184011Y-73907631D01*
X140129495Y-73879852D01*
X140101719Y-73825335D01*
X140100500Y-73809850D01*
X140100500Y-68740000D01*
X140364617Y-68740000D01*
X140938120Y-68740000D01*
X140934075Y-68747007D01*
X140900000Y-68874174D01*
X140900000Y-69005826D01*
X140934075Y-69132993D01*
X140938120Y-69140000D01*
X140364617Y-69140000D01*
X140365192Y-69145834D01*
X140365194Y-69145844D01*
X140425232Y-69343762D01*
X140425234Y-69343767D01*
X140522724Y-69526160D01*
X140522731Y-69526170D01*
X140653940Y-69686050D01*
X140653949Y-69686059D01*
X140813829Y-69817268D01*
X140813839Y-69817275D01*
X140996232Y-69914765D01*
X140996237Y-69914767D01*
X141194158Y-69974806D01*
X141194160Y-69974807D01*
X141200000Y-69975381D01*
X141200000Y-69401879D01*
X141207007Y-69405925D01*
X141334174Y-69440000D01*
X141465826Y-69440000D01*
X141592993Y-69405925D01*
X141600000Y-69401879D01*
X141600000Y-69975381D01*
X141605839Y-69974807D01*
X141605841Y-69974806D01*
X141803762Y-69914767D01*
X141803767Y-69914765D01*
X141986160Y-69817275D01*
X141986170Y-69817268D01*
X142146050Y-69686059D01*
X142146059Y-69686050D01*
X142277268Y-69526170D01*
X142277275Y-69526160D01*
X142374765Y-69343767D01*
X142374767Y-69343762D01*
X142434805Y-69145844D01*
X142434807Y-69145834D01*
X142435383Y-69140000D01*
X141861880Y-69140000D01*
X141865925Y-69132993D01*
X141900000Y-69005826D01*
X141900000Y-68874174D01*
X141865925Y-68747007D01*
X141861880Y-68740000D01*
X142435382Y-68740000D01*
X142434807Y-68734165D01*
X142434805Y-68734155D01*
X142374767Y-68536237D01*
X142374765Y-68536232D01*
X142277275Y-68353839D01*
X142277268Y-68353829D01*
X142146059Y-68193949D01*
X142146050Y-68193940D01*
X141986170Y-68062731D01*
X141986160Y-68062724D01*
X141803767Y-67965234D01*
X141803762Y-67965232D01*
X141605844Y-67905194D01*
X141605834Y-67905192D01*
X141600000Y-67904617D01*
X141600000Y-68478120D01*
X141592993Y-68474075D01*
X141465826Y-68440000D01*
X141334174Y-68440000D01*
X141207007Y-68474075D01*
X141200000Y-68478120D01*
X141200000Y-67904617D01*
X141194165Y-67905192D01*
X141194155Y-67905194D01*
X140996237Y-67965232D01*
X140996232Y-67965234D01*
X140813839Y-68062724D01*
X140813829Y-68062731D01*
X140653949Y-68193940D01*
X140653940Y-68193949D01*
X140522731Y-68353829D01*
X140522724Y-68353839D01*
X140425234Y-68536232D01*
X140425232Y-68536237D01*
X140365194Y-68734155D01*
X140365192Y-68734165D01*
X140364617Y-68740000D01*
X140100500Y-68740000D01*
X140100500Y-65199500D01*
X140119407Y-65141309D01*
X140168907Y-65105345D01*
X140199500Y-65100500D01*
X143294101Y-65100500D01*
X143352292Y-65119407D01*
G37*
%TD.AperFunction*%
%TD*%
M02*
