%TF.GenerationSoftware,KiCad,Pcbnew,8.0.8*%
%TF.CreationDate,2025-02-15T21:23:54+01:00*%
%TF.ProjectId,universal_fan_ctrl,756e6976-6572-4736-916c-5f66616e5f63,rev?*%
%TF.SameCoordinates,Original*%
%TF.FileFunction,Copper,L1,Top*%
%TF.FilePolarity,Positive*%
%FSLAX46Y46*%
G04 Gerber Fmt 4.6, Leading zero omitted, Abs format (unit mm)*
G04 Created by KiCad (PCBNEW 8.0.8) date 2025-02-15 21:23:54*
%MOMM*%
%LPD*%
G01*
G04 APERTURE LIST*
G04 Aperture macros list*
%AMRoundRect*
0 Rectangle with rounded corners*
0 $1 Rounding radius*
0 $2 $3 $4 $5 $6 $7 $8 $9 X,Y pos of 4 corners*
0 Add a 4 corners polygon primitive as box body*
4,1,4,$2,$3,$4,$5,$6,$7,$8,$9,$2,$3,0*
0 Add four circle primitives for the rounded corners*
1,1,$1+$1,$2,$3*
1,1,$1+$1,$4,$5*
1,1,$1+$1,$6,$7*
1,1,$1+$1,$8,$9*
0 Add four rect primitives between the rounded corners*
20,1,$1+$1,$2,$3,$4,$5,0*
20,1,$1+$1,$4,$5,$6,$7,0*
20,1,$1+$1,$6,$7,$8,$9,0*
20,1,$1+$1,$8,$9,$2,$3,0*%
G04 Aperture macros list end*
%TA.AperFunction,SMDPad,CuDef*%
%ADD10RoundRect,0.125000X-0.125000X0.125000X-0.125000X-0.125000X0.125000X-0.125000X0.125000X0.125000X0*%
%TD*%
%TA.AperFunction,SMDPad,CuDef*%
%ADD11RoundRect,0.150000X0.587500X0.150000X-0.587500X0.150000X-0.587500X-0.150000X0.587500X-0.150000X0*%
%TD*%
%TA.AperFunction,ComponentPad*%
%ADD12R,1.700000X1.700000*%
%TD*%
%TA.AperFunction,ComponentPad*%
%ADD13O,1.700000X1.700000*%
%TD*%
%TA.AperFunction,ComponentPad*%
%ADD14R,1.050000X1.500000*%
%TD*%
%TA.AperFunction,ComponentPad*%
%ADD15O,1.050000X1.500000*%
%TD*%
%TA.AperFunction,SMDPad,CuDef*%
%ADD16RoundRect,0.150000X0.150000X-0.587500X0.150000X0.587500X-0.150000X0.587500X-0.150000X-0.587500X0*%
%TD*%
%TA.AperFunction,SMDPad,CuDef*%
%ADD17RoundRect,0.200000X-0.275000X0.200000X-0.275000X-0.200000X0.275000X-0.200000X0.275000X0.200000X0*%
%TD*%
%TA.AperFunction,SMDPad,CuDef*%
%ADD18RoundRect,0.200000X0.200000X0.275000X-0.200000X0.275000X-0.200000X-0.275000X0.200000X-0.275000X0*%
%TD*%
%TA.AperFunction,SMDPad,CuDef*%
%ADD19RoundRect,0.200000X-0.200000X-0.275000X0.200000X-0.275000X0.200000X0.275000X-0.200000X0.275000X0*%
%TD*%
%TA.AperFunction,SMDPad,CuDef*%
%ADD20RoundRect,0.200000X0.275000X-0.200000X0.275000X0.200000X-0.275000X0.200000X-0.275000X-0.200000X0*%
%TD*%
%TA.AperFunction,SMDPad,CuDef*%
%ADD21RoundRect,0.150000X0.825000X0.150000X-0.825000X0.150000X-0.825000X-0.150000X0.825000X-0.150000X0*%
%TD*%
%TA.AperFunction,ViaPad*%
%ADD22C,0.600000*%
%TD*%
%TA.AperFunction,Conductor*%
%ADD23C,0.200000*%
%TD*%
%TA.AperFunction,Conductor*%
%ADD24C,0.500000*%
%TD*%
G04 APERTURE END LIST*
D10*
%TO.P,D2,1,K*%
%TO.N,Net-(D2-K)*%
X149300000Y-65600001D03*
%TO.P,D2,2,A*%
%TO.N,Net-(D2-A)*%
X149300000Y-67799999D03*
%TD*%
D11*
%TO.P,U1,1,VO*%
%TO.N,+3.3V*%
X145837500Y-67750000D03*
%TO.P,U1,2,VI*%
%TO.N,Net-(D2-K)*%
X145837500Y-65850000D03*
%TO.P,U1,3,GND*%
%TO.N,GND*%
X143962499Y-66800000D03*
%TD*%
D12*
%TO.P,J1,1,Pin_1*%
%TO.N,Net-(D2-K)*%
X141400000Y-66400000D03*
D13*
%TO.P,J1,2,Pin_2*%
%TO.N,GND*%
X141400000Y-68940000D03*
%TO.P,J1,3,Pin_3*%
%TO.N,/UPDI{slash}~{RESET}*%
X141400000Y-71479999D03*
%TD*%
D14*
%TO.P,U3,1,GND*%
%TO.N,GND*%
X152670001Y-75540001D03*
D15*
%TO.P,U3,2,DQ*%
%TO.N,/TEMP_SENS*%
X151400000Y-75540001D03*
%TO.P,U3,3,V_{DD}*%
%TO.N,+3.3V*%
X150130001Y-75540001D03*
%TD*%
D16*
%TO.P,Q1,1,G*%
%TO.N,/FAN_SW*%
X150950000Y-73037500D03*
%TO.P,Q1,2,S*%
%TO.N,GND*%
X152850000Y-73037500D03*
%TO.P,Q1,3,D*%
%TO.N,Net-(D2-A)*%
X151900000Y-71162499D03*
%TD*%
D17*
%TO.P,R5,1*%
%TO.N,/TEMP_SENS*%
X147800000Y-74275000D03*
%TO.P,R5,2*%
%TO.N,+3.3V*%
X147800000Y-75925000D03*
%TD*%
D18*
%TO.P,Rtr1,1*%
%TO.N,/TR*%
X142975000Y-75900000D03*
%TO.P,Rtr1,2*%
%TO.N,+3.3V*%
X141325000Y-75900000D03*
%TD*%
D19*
%TO.P,R4,1*%
%TO.N,GND*%
X141325000Y-74400000D03*
%TO.P,R4,2*%
%TO.N,/TR*%
X142975000Y-74400000D03*
%TD*%
D18*
%TO.P,R3,1*%
%TO.N,GND*%
X146275000Y-74400000D03*
%TO.P,R3,2*%
%TO.N,/MT*%
X144625000Y-74400000D03*
%TD*%
D19*
%TO.P,Rmt1,1*%
%TO.N,/MT*%
X144625000Y-75900000D03*
%TO.P,Rmt1,2*%
%TO.N,+3.3V*%
X146275000Y-75900000D03*
%TD*%
D12*
%TO.P,J2,1,Pin_1*%
%TO.N,Net-(D2-K)*%
X151800000Y-66400000D03*
D13*
%TO.P,J2,2,Pin_2*%
%TO.N,Net-(D2-A)*%
X151800000Y-68940000D03*
%TD*%
D20*
%TO.P,C2,1*%
%TO.N,+3.3V*%
X147600000Y-67425000D03*
%TO.P,C2,2*%
%TO.N,GND*%
X147600000Y-65775000D03*
%TD*%
D21*
%TO.P,U2,1,VCC*%
%TO.N,+3.3V*%
X149075000Y-72805000D03*
%TO.P,U2,2,PA6*%
%TO.N,/FAN_SW*%
X149075000Y-71535000D03*
%TO.P,U2,3,PA7*%
%TO.N,/TEMP_SENS*%
X149075000Y-70265000D03*
%TO.P,U2,4,PA1*%
%TO.N,/FAN_SW*%
X149075000Y-68995000D03*
%TO.P,U2,5,PA2*%
%TO.N,/MT*%
X144125000Y-68995000D03*
%TO.P,U2,6,~{RESET}/PA0*%
%TO.N,/UPDI{slash}~{RESET}*%
X144125000Y-70265000D03*
%TO.P,U2,7,PA3*%
%TO.N,/TR*%
X144125000Y-71535000D03*
%TO.P,U2,8,GND*%
%TO.N,GND*%
X144125000Y-72805000D03*
%TD*%
D22*
%TO.N,GND*%
X145500000Y-75100000D03*
%TO.N,+3.3V*%
X142200000Y-75200000D03*
X147000000Y-75175000D03*
%TO.N,GND*%
X142600000Y-72800000D03*
%TD*%
D23*
%TO.N,GND*%
X146200000Y-74400000D02*
X145500000Y-75100000D01*
X146275000Y-74400000D02*
X146200000Y-74400000D01*
%TO.N,+3.3V*%
X141500000Y-75900000D02*
X142200000Y-75200000D01*
X141325000Y-75900000D02*
X141500000Y-75900000D01*
%TO.N,/TR*%
X144125000Y-71535000D02*
X145535000Y-71535000D01*
X145535000Y-71535000D02*
X145800000Y-71800000D01*
X145800000Y-71800000D02*
X145800000Y-72900000D01*
X145800000Y-72900000D02*
X145100000Y-73600000D01*
X145100000Y-73600000D02*
X143775000Y-73600000D01*
X143775000Y-73600000D02*
X142975000Y-74400000D01*
%TO.N,/MT*%
X144125000Y-68995000D02*
X144795000Y-68995000D01*
X144795000Y-68995000D02*
X146300000Y-70500000D01*
X146300000Y-70500000D02*
X146300000Y-73000000D01*
X146300000Y-73000000D02*
X144900000Y-74400000D01*
X144900000Y-74400000D02*
X144625000Y-74400000D01*
%TO.N,+3.3V*%
X147000000Y-75125000D02*
X147000000Y-75175000D01*
X147000000Y-75175000D02*
X146275000Y-75900000D01*
X147800000Y-75925000D02*
X149745002Y-75925000D01*
X149745002Y-75925000D02*
X150130001Y-75540001D01*
X147000000Y-75125000D02*
X147000000Y-72800000D01*
X147000000Y-72800000D02*
X147000000Y-68600000D01*
X149075000Y-72805000D02*
X147005000Y-72805000D01*
X147005000Y-72805000D02*
X147000000Y-72800000D01*
X147000000Y-68600000D02*
X146150000Y-67750000D01*
X146150000Y-67750000D02*
X145837500Y-67750000D01*
X147150000Y-68450000D02*
X147600000Y-68000000D01*
X147800000Y-75925000D02*
X147000000Y-75125000D01*
X147000000Y-68600000D02*
X147150000Y-68450000D01*
%TO.N,/FAN_SW*%
X149075000Y-68995000D02*
X147905000Y-68995000D01*
X147905000Y-68995000D02*
X147700000Y-69200000D01*
X147700000Y-69200000D02*
X147700000Y-71300000D01*
X147700000Y-71300000D02*
X147935000Y-71535000D01*
X147935000Y-71535000D02*
X149075000Y-71535000D01*
%TO.N,/MT*%
X144625000Y-75900000D02*
X144625000Y-74400000D01*
%TO.N,/TR*%
X142975000Y-75900000D02*
X142975000Y-74400000D01*
%TO.N,Net-(D2-A)*%
X149300000Y-67799999D02*
X150659999Y-67799999D01*
%TO.N,Net-(D2-K)*%
X149300000Y-65600001D02*
X151000001Y-65600001D01*
X151000001Y-65600001D02*
X151800000Y-66400000D01*
%TO.N,+3.3V*%
X147600000Y-68000000D02*
X147600000Y-67425000D01*
D24*
%TO.N,Net-(D2-K)*%
X145737500Y-65850000D02*
X141950000Y-65850000D01*
X141950000Y-65850000D02*
X141400000Y-66400000D01*
D23*
%TO.N,Net-(D2-A)*%
X150659999Y-67799999D02*
X151800000Y-68940000D01*
D24*
%TO.N,GND*%
X152850000Y-73037500D02*
X152850000Y-75360002D01*
X152850000Y-75360002D02*
X152670001Y-75540001D01*
D23*
%TO.N,/FAN_SW*%
X149835000Y-71535000D02*
X149075000Y-71535000D01*
X150950000Y-73037500D02*
X150950000Y-72650000D01*
X150950000Y-72650000D02*
X149835000Y-71535000D01*
%TO.N,/UPDI{slash}~{RESET}*%
X142614999Y-70265000D02*
X141400000Y-71479999D01*
X144125000Y-70265000D02*
X142614999Y-70265000D01*
%TO.N,/TEMP_SENS*%
X151400000Y-75540001D02*
X151400000Y-74450000D01*
X150900000Y-71600000D02*
X150900000Y-71400000D01*
X151400000Y-74100000D02*
X151900000Y-73600000D01*
X151900000Y-73600000D02*
X151900000Y-72600000D01*
X151400000Y-74450000D02*
X151225000Y-74275000D01*
X149075000Y-70265000D02*
X149765000Y-70265000D01*
X149765000Y-70265000D02*
X150900000Y-71400000D01*
X151400000Y-75540001D02*
X151400000Y-74100000D01*
X151225000Y-74275000D02*
X151400000Y-74100000D01*
X148200000Y-74275000D02*
X151225000Y-74275000D01*
X151900000Y-72600000D02*
X150900000Y-71600000D01*
D24*
%TO.N,Net-(D2-A)*%
X151900000Y-69040000D02*
X151800000Y-68940000D01*
X151900000Y-71162499D02*
X151900000Y-69040000D01*
%TD*%
%TA.AperFunction,Conductor*%
%TO.N,GND*%
G36*
X148908359Y-65119407D02*
G01*
X148944323Y-65168907D01*
X148944323Y-65230093D01*
X148920173Y-65269501D01*
X148909081Y-65280594D01*
X148904253Y-65285422D01*
X148855741Y-65389456D01*
X148849500Y-65436863D01*
X148849500Y-65763134D01*
X148849501Y-65763146D01*
X148855740Y-65810545D01*
X148855740Y-65810547D01*
X148904251Y-65914577D01*
X148904252Y-65914578D01*
X148904253Y-65914580D01*
X148985421Y-65995748D01*
X149089455Y-66044260D01*
X149136861Y-66050501D01*
X149463138Y-66050500D01*
X149510545Y-66044260D01*
X149510546Y-66044260D01*
X149566611Y-66018115D01*
X149614579Y-65995748D01*
X149680831Y-65929495D01*
X149735346Y-65901720D01*
X149750833Y-65900501D01*
X150650500Y-65900501D01*
X150708691Y-65919408D01*
X150744655Y-65968908D01*
X150749500Y-65999501D01*
X150749500Y-67269746D01*
X150749501Y-67269758D01*
X150761132Y-67328227D01*
X150761134Y-67328233D01*
X150772670Y-67345497D01*
X150789279Y-67404385D01*
X150768102Y-67461789D01*
X150717228Y-67495782D01*
X150690355Y-67499499D01*
X149750833Y-67499499D01*
X149692642Y-67480592D01*
X149680835Y-67470508D01*
X149614579Y-67404252D01*
X149510545Y-67355740D01*
X149463139Y-67349499D01*
X149463137Y-67349499D01*
X149136866Y-67349499D01*
X149136854Y-67349500D01*
X149089455Y-67355739D01*
X149089453Y-67355739D01*
X148985423Y-67404250D01*
X148904253Y-67485420D01*
X148855741Y-67589454D01*
X148849500Y-67636861D01*
X148849500Y-67963132D01*
X148849501Y-67963144D01*
X148855740Y-68010543D01*
X148855740Y-68010545D01*
X148904251Y-68114575D01*
X148904252Y-68114576D01*
X148904253Y-68114578D01*
X148985421Y-68195746D01*
X149089455Y-68244258D01*
X149136861Y-68250499D01*
X149463138Y-68250498D01*
X149510545Y-68244258D01*
X149510546Y-68244258D01*
X149566611Y-68218113D01*
X149614579Y-68195746D01*
X149680831Y-68129493D01*
X149735346Y-68101718D01*
X149750833Y-68100499D01*
X150494520Y-68100499D01*
X150552711Y-68119406D01*
X150564524Y-68129495D01*
X150823812Y-68388783D01*
X150851589Y-68443300D01*
X150842018Y-68503732D01*
X150841120Y-68505453D01*
X150824769Y-68536044D01*
X150824766Y-68536052D01*
X150764699Y-68734065D01*
X150764698Y-68734070D01*
X150744417Y-68939996D01*
X150744417Y-68940003D01*
X150764698Y-69145929D01*
X150764699Y-69145934D01*
X150824768Y-69343954D01*
X150922316Y-69526452D01*
X151053302Y-69686059D01*
X151053590Y-69686410D01*
X151053595Y-69686414D01*
X151213547Y-69817683D01*
X151213548Y-69817683D01*
X151213550Y-69817685D01*
X151395975Y-69915194D01*
X151397169Y-69915832D01*
X151439575Y-69959938D01*
X151449500Y-70003142D01*
X151449500Y-70368730D01*
X151439441Y-70412210D01*
X151409427Y-70473603D01*
X151399500Y-70541742D01*
X151399500Y-71435521D01*
X151380593Y-71493712D01*
X151331093Y-71529676D01*
X151269907Y-71529676D01*
X151230496Y-71505525D01*
X151229496Y-71504525D01*
X151201719Y-71450008D01*
X151200500Y-71434521D01*
X151200500Y-71360437D01*
X151200499Y-71360435D01*
X151196222Y-71344475D01*
X151180021Y-71284011D01*
X151163259Y-71254979D01*
X151140460Y-71215489D01*
X151084511Y-71159539D01*
X151084511Y-71159540D01*
X150279496Y-70354525D01*
X150251719Y-70300008D01*
X150250500Y-70284521D01*
X150250500Y-70081743D01*
X150250500Y-70081740D01*
X150240573Y-70013607D01*
X150221604Y-69974806D01*
X150192774Y-69915832D01*
X150189198Y-69908517D01*
X150106483Y-69825802D01*
X150106481Y-69825801D01*
X150001395Y-69774427D01*
X149974139Y-69770456D01*
X149933260Y-69764500D01*
X148216740Y-69764500D01*
X148187540Y-69768754D01*
X148148603Y-69774427D01*
X148142978Y-69777178D01*
X148082395Y-69785747D01*
X148028346Y-69757070D01*
X148001476Y-69702101D01*
X148000500Y-69688236D01*
X148000500Y-69571763D01*
X148019407Y-69513572D01*
X148068907Y-69477608D01*
X148130093Y-69477608D01*
X148142983Y-69482824D01*
X148148603Y-69485572D01*
X148148605Y-69485572D01*
X148148607Y-69485573D01*
X148216740Y-69495500D01*
X148216743Y-69495500D01*
X149933257Y-69495500D01*
X149933260Y-69495500D01*
X150001393Y-69485573D01*
X150106483Y-69434198D01*
X150189198Y-69351483D01*
X150240573Y-69246393D01*
X150250500Y-69178260D01*
X150250500Y-68811740D01*
X150240573Y-68743607D01*
X150238809Y-68739999D01*
X150189198Y-68638518D01*
X150189198Y-68638517D01*
X150106483Y-68555802D01*
X150073957Y-68539901D01*
X150001395Y-68504427D01*
X149974139Y-68500456D01*
X149933260Y-68494500D01*
X148216740Y-68494500D01*
X148182673Y-68499463D01*
X148148604Y-68504427D01*
X148043518Y-68555801D01*
X147960801Y-68638518D01*
X147960577Y-68638978D01*
X147960180Y-68639387D01*
X147956035Y-68645194D01*
X147955164Y-68644572D01*
X147918035Y-68682953D01*
X147871635Y-68694500D01*
X147865438Y-68694500D01*
X147818661Y-68707033D01*
X147789007Y-68714979D01*
X147720493Y-68754536D01*
X147720488Y-68754540D01*
X147515488Y-68959539D01*
X147515489Y-68959540D01*
X147469504Y-69005525D01*
X147414987Y-69033302D01*
X147354555Y-69023731D01*
X147311290Y-68980466D01*
X147300500Y-68935521D01*
X147300500Y-68765479D01*
X147319407Y-68707288D01*
X147329496Y-68695475D01*
X147390460Y-68634511D01*
X147584971Y-68440000D01*
X147840460Y-68184511D01*
X147848850Y-68169979D01*
X147880021Y-68115989D01*
X147887528Y-68087972D01*
X147920851Y-68036659D01*
X147967667Y-68015814D01*
X148000304Y-68010646D01*
X148113342Y-67953050D01*
X148203050Y-67863342D01*
X148260646Y-67750304D01*
X148275500Y-67656519D01*
X148275499Y-67193482D01*
X148275498Y-67193478D01*
X148275498Y-67193476D01*
X148260647Y-67099700D01*
X148260646Y-67099698D01*
X148260646Y-67099696D01*
X148203050Y-66986658D01*
X148113342Y-66896950D01*
X148000304Y-66839354D01*
X148000305Y-66839354D01*
X147906522Y-66824500D01*
X147293479Y-66824500D01*
X147293476Y-66824501D01*
X147199700Y-66839352D01*
X147199695Y-66839354D01*
X147086659Y-66896949D01*
X146996949Y-66986659D01*
X146939354Y-67099695D01*
X146924500Y-67193478D01*
X146924500Y-67395778D01*
X146905593Y-67453969D01*
X146856093Y-67489933D01*
X146794907Y-67489933D01*
X146745407Y-67453969D01*
X146736559Y-67439258D01*
X146715303Y-67395778D01*
X146714198Y-67393517D01*
X146631483Y-67310802D01*
X146631481Y-67310801D01*
X146526395Y-67259427D01*
X146499139Y-67255456D01*
X146458260Y-67249500D01*
X145216740Y-67249500D01*
X145182673Y-67254463D01*
X145148604Y-67259427D01*
X145043518Y-67310801D01*
X144960801Y-67393518D01*
X144909427Y-67498604D01*
X144909427Y-67498607D01*
X144899500Y-67566740D01*
X144899500Y-67933260D01*
X144904159Y-67965234D01*
X144909427Y-68001395D01*
X144960801Y-68106481D01*
X144960802Y-68106483D01*
X145043517Y-68189198D01*
X145097285Y-68215483D01*
X145148604Y-68240572D01*
X145148605Y-68240572D01*
X145148607Y-68240573D01*
X145216740Y-68250500D01*
X146184521Y-68250500D01*
X146242712Y-68269407D01*
X146254525Y-68279496D01*
X146670504Y-68695475D01*
X146698281Y-68749992D01*
X146699500Y-68765479D01*
X146699500Y-70235521D01*
X146680593Y-70293712D01*
X146631093Y-70329676D01*
X146569907Y-70329676D01*
X146530496Y-70305525D01*
X145329496Y-69104525D01*
X145301719Y-69050008D01*
X145300500Y-69034521D01*
X145300500Y-68811743D01*
X145300500Y-68811740D01*
X145290573Y-68743607D01*
X145288809Y-68739999D01*
X145239198Y-68638518D01*
X145239198Y-68638517D01*
X145156483Y-68555802D01*
X145123957Y-68539901D01*
X145051395Y-68504427D01*
X145024139Y-68500456D01*
X144983260Y-68494500D01*
X143266740Y-68494500D01*
X143232673Y-68499463D01*
X143198604Y-68504427D01*
X143093518Y-68555801D01*
X143010801Y-68638518D01*
X142959427Y-68743604D01*
X142957834Y-68754540D01*
X142949500Y-68811740D01*
X142949500Y-69178260D01*
X142956118Y-69223682D01*
X142959427Y-69246395D01*
X143005237Y-69340099D01*
X143010802Y-69351483D01*
X143093517Y-69434198D01*
X143147285Y-69460483D01*
X143198604Y-69485572D01*
X143198605Y-69485572D01*
X143198607Y-69485573D01*
X143266740Y-69495500D01*
X144829521Y-69495500D01*
X144887712Y-69514407D01*
X144899525Y-69524496D01*
X144970525Y-69595496D01*
X144998302Y-69650013D01*
X144988731Y-69710445D01*
X144945466Y-69753710D01*
X144900521Y-69764500D01*
X143266740Y-69764500D01*
X143232673Y-69769463D01*
X143198604Y-69774427D01*
X143093518Y-69825801D01*
X143010801Y-69908518D01*
X143010577Y-69908978D01*
X143010180Y-69909387D01*
X143006035Y-69915194D01*
X143005164Y-69914572D01*
X142968035Y-69952953D01*
X142921635Y-69964500D01*
X142575434Y-69964500D01*
X142499010Y-69984978D01*
X142449427Y-70013606D01*
X142449423Y-70013608D01*
X142430490Y-70024538D01*
X142430488Y-70024539D01*
X141951214Y-70503811D01*
X141896698Y-70531588D01*
X141836266Y-70522017D01*
X141834583Y-70521138D01*
X141803954Y-70504767D01*
X141605934Y-70444698D01*
X141605929Y-70444697D01*
X141400003Y-70424416D01*
X141399997Y-70424416D01*
X141194070Y-70444697D01*
X141194065Y-70444698D01*
X140996045Y-70504767D01*
X140813547Y-70602315D01*
X140653595Y-70733584D01*
X140653585Y-70733594D01*
X140522316Y-70893546D01*
X140424768Y-71076044D01*
X140364699Y-71274064D01*
X140364698Y-71274069D01*
X140344417Y-71479995D01*
X140344417Y-71480002D01*
X140364698Y-71685928D01*
X140364699Y-71685933D01*
X140424768Y-71883953D01*
X140522316Y-72066451D01*
X140594620Y-72154554D01*
X140653590Y-72226409D01*
X140653595Y-72226413D01*
X140813547Y-72357682D01*
X140813548Y-72357682D01*
X140813550Y-72357684D01*
X140996046Y-72455231D01*
X141120400Y-72492953D01*
X141194065Y-72515299D01*
X141194070Y-72515300D01*
X141399997Y-72535582D01*
X141400000Y-72535582D01*
X141400003Y-72535582D01*
X141605929Y-72515300D01*
X141605934Y-72515299D01*
X141605941Y-72515297D01*
X141803954Y-72455231D01*
X141986450Y-72357684D01*
X142146410Y-72226409D01*
X142277685Y-72066449D01*
X142375232Y-71883953D01*
X142435300Y-71685933D01*
X142435301Y-71685928D01*
X142455583Y-71480002D01*
X142455583Y-71479995D01*
X142435301Y-71274069D01*
X142435300Y-71274064D01*
X142417078Y-71213996D01*
X142375232Y-71076045D01*
X142358880Y-71045454D01*
X142348123Y-70985222D01*
X142374824Y-70930170D01*
X142376128Y-70928841D01*
X142710474Y-70594496D01*
X142764990Y-70566719D01*
X142780477Y-70565500D01*
X142921635Y-70565500D01*
X142979826Y-70584407D01*
X143005610Y-70615108D01*
X143006035Y-70614806D01*
X143009884Y-70620197D01*
X143010576Y-70621020D01*
X143010802Y-70621483D01*
X143093517Y-70704198D01*
X143147285Y-70730483D01*
X143198604Y-70755572D01*
X143198605Y-70755572D01*
X143198607Y-70755573D01*
X143266740Y-70765500D01*
X143266743Y-70765500D01*
X144983257Y-70765500D01*
X144983260Y-70765500D01*
X145051393Y-70755573D01*
X145156483Y-70704198D01*
X145239198Y-70621483D01*
X145290573Y-70516393D01*
X145300500Y-70448260D01*
X145300500Y-70164479D01*
X145319407Y-70106288D01*
X145368907Y-70070324D01*
X145430093Y-70070324D01*
X145469504Y-70094475D01*
X145970504Y-70595475D01*
X145998281Y-70649992D01*
X145999500Y-70665479D01*
X145999500Y-71335521D01*
X145980593Y-71393712D01*
X145931093Y-71429676D01*
X145869907Y-71429676D01*
X145830497Y-71405525D01*
X145719511Y-71294540D01*
X145684047Y-71274064D01*
X145684047Y-71274065D01*
X145650989Y-71254979D01*
X145650988Y-71254978D01*
X145650987Y-71254978D01*
X145574564Y-71234500D01*
X145574562Y-71234500D01*
X145328365Y-71234500D01*
X145270174Y-71215593D01*
X145244389Y-71184891D01*
X145243965Y-71185194D01*
X145240115Y-71179802D01*
X145239423Y-71178978D01*
X145239198Y-71178518D01*
X145239198Y-71178517D01*
X145156483Y-71095802D01*
X145156481Y-71095801D01*
X145051395Y-71044427D01*
X145024139Y-71040456D01*
X144983260Y-71034500D01*
X143266740Y-71034500D01*
X143232673Y-71039463D01*
X143198604Y-71044427D01*
X143093518Y-71095801D01*
X143010801Y-71178518D01*
X142959427Y-71283604D01*
X142959368Y-71284011D01*
X142949500Y-71351740D01*
X142949500Y-71718260D01*
X142956118Y-71763682D01*
X142959427Y-71786395D01*
X143007121Y-71883953D01*
X143010802Y-71891483D01*
X143093517Y-71974198D01*
X143147285Y-72000483D01*
X143198604Y-72025572D01*
X143198605Y-72025572D01*
X143198607Y-72025573D01*
X143266740Y-72035500D01*
X143266743Y-72035500D01*
X144983257Y-72035500D01*
X144983260Y-72035500D01*
X145051393Y-72025573D01*
X145156483Y-71974198D01*
X145239198Y-71891483D01*
X145239423Y-71891021D01*
X145239819Y-71890612D01*
X145243965Y-71884806D01*
X145244835Y-71885427D01*
X145281965Y-71847047D01*
X145328365Y-71835500D01*
X145369521Y-71835500D01*
X145427712Y-71854407D01*
X145439525Y-71864496D01*
X145470504Y-71895475D01*
X145498281Y-71949992D01*
X145499500Y-71965479D01*
X145499500Y-72734521D01*
X145480593Y-72792712D01*
X145470504Y-72804525D01*
X145004525Y-73270504D01*
X144950008Y-73298281D01*
X144934521Y-73299500D01*
X143735435Y-73299500D01*
X143659011Y-73319978D01*
X143631981Y-73335584D01*
X143627798Y-73338000D01*
X143590489Y-73359540D01*
X143590486Y-73359542D01*
X143254524Y-73695504D01*
X143200008Y-73723281D01*
X143184521Y-73724500D01*
X142743479Y-73724500D01*
X142743476Y-73724501D01*
X142649700Y-73739352D01*
X142649695Y-73739354D01*
X142536659Y-73796949D01*
X142446949Y-73886659D01*
X142389354Y-73999695D01*
X142374500Y-74093477D01*
X142374501Y-74600500D01*
X142355594Y-74658691D01*
X142306094Y-74694655D01*
X142275501Y-74699500D01*
X142128035Y-74699500D01*
X141989949Y-74740046D01*
X141989942Y-74740049D01*
X141868873Y-74817855D01*
X141774622Y-74926628D01*
X141714834Y-75057543D01*
X141702131Y-75145897D01*
X141675135Y-75200805D01*
X141621021Y-75229358D01*
X141588652Y-75229589D01*
X141556522Y-75224500D01*
X141093479Y-75224500D01*
X141093476Y-75224501D01*
X140999700Y-75239352D01*
X140999695Y-75239354D01*
X140886659Y-75296949D01*
X140796949Y-75386659D01*
X140739354Y-75499695D01*
X140724500Y-75593477D01*
X140724500Y-76206520D01*
X140724501Y-76206523D01*
X140739352Y-76300299D01*
X140739353Y-76300304D01*
X140780244Y-76380554D01*
X140789816Y-76440986D01*
X140762039Y-76495503D01*
X140707523Y-76523281D01*
X140692035Y-76524500D01*
X140199500Y-76524500D01*
X140141309Y-76505593D01*
X140105345Y-76456093D01*
X140100500Y-76425500D01*
X140100500Y-68740000D01*
X140364617Y-68740000D01*
X140938120Y-68740000D01*
X140934075Y-68747007D01*
X140900000Y-68874174D01*
X140900000Y-69005826D01*
X140934075Y-69132993D01*
X140938120Y-69140000D01*
X140364617Y-69140000D01*
X140365192Y-69145834D01*
X140365194Y-69145844D01*
X140425232Y-69343762D01*
X140425234Y-69343767D01*
X140522724Y-69526160D01*
X140522731Y-69526170D01*
X140653940Y-69686050D01*
X140653949Y-69686059D01*
X140813829Y-69817268D01*
X140813839Y-69817275D01*
X140996232Y-69914765D01*
X140996237Y-69914767D01*
X141194158Y-69974806D01*
X141194160Y-69974807D01*
X141200000Y-69975381D01*
X141200000Y-69401879D01*
X141207007Y-69405925D01*
X141334174Y-69440000D01*
X141465826Y-69440000D01*
X141592993Y-69405925D01*
X141600000Y-69401879D01*
X141600000Y-69975381D01*
X141605839Y-69974807D01*
X141605841Y-69974806D01*
X141803762Y-69914767D01*
X141803767Y-69914765D01*
X141986160Y-69817275D01*
X141986170Y-69817268D01*
X142146050Y-69686059D01*
X142146059Y-69686050D01*
X142277268Y-69526170D01*
X142277275Y-69526160D01*
X142374765Y-69343767D01*
X142374767Y-69343762D01*
X142434805Y-69145844D01*
X142434807Y-69145834D01*
X142435383Y-69140000D01*
X141861880Y-69140000D01*
X141865925Y-69132993D01*
X141900000Y-69005826D01*
X141900000Y-68874174D01*
X141865925Y-68747007D01*
X141861880Y-68740000D01*
X142435382Y-68740000D01*
X142434807Y-68734165D01*
X142434805Y-68734155D01*
X142374767Y-68536237D01*
X142374765Y-68536232D01*
X142277275Y-68353839D01*
X142277268Y-68353829D01*
X142146059Y-68193949D01*
X142146050Y-68193940D01*
X141986170Y-68062731D01*
X141986160Y-68062724D01*
X141803767Y-67965234D01*
X141803762Y-67965232D01*
X141605844Y-67905194D01*
X141605834Y-67905192D01*
X141600000Y-67904617D01*
X141600000Y-68478120D01*
X141592993Y-68474075D01*
X141465826Y-68440000D01*
X141334174Y-68440000D01*
X141207007Y-68474075D01*
X141200000Y-68478120D01*
X141200000Y-67904617D01*
X141194165Y-67905192D01*
X141194155Y-67905194D01*
X140996237Y-67965232D01*
X140996232Y-67965234D01*
X140813839Y-68062724D01*
X140813829Y-68062731D01*
X140653949Y-68193940D01*
X140653940Y-68193949D01*
X140522731Y-68353829D01*
X140522724Y-68353839D01*
X140425234Y-68536232D01*
X140425232Y-68536237D01*
X140365194Y-68734155D01*
X140365192Y-68734165D01*
X140364617Y-68740000D01*
X140100500Y-68740000D01*
X140100500Y-65530253D01*
X140349500Y-65530253D01*
X140349500Y-67269746D01*
X140349501Y-67269758D01*
X140361132Y-67328227D01*
X140361134Y-67328233D01*
X140379514Y-67355740D01*
X140405448Y-67394552D01*
X140471769Y-67438867D01*
X140516231Y-67447711D01*
X140530241Y-67450498D01*
X140530246Y-67450498D01*
X140530252Y-67450500D01*
X140530253Y-67450500D01*
X142269747Y-67450500D01*
X142269748Y-67450500D01*
X142328231Y-67438867D01*
X142394552Y-67394552D01*
X142438867Y-67328231D01*
X142450500Y-67269748D01*
X142450500Y-66399500D01*
X142469407Y-66341309D01*
X142518907Y-66305345D01*
X142549500Y-66300500D01*
X145043732Y-66300500D01*
X145087212Y-66310559D01*
X145148607Y-66340573D01*
X145216740Y-66350500D01*
X145216743Y-66350500D01*
X146458257Y-66350500D01*
X146458260Y-66350500D01*
X146526393Y-66340573D01*
X146631483Y-66289198D01*
X146714198Y-66206483D01*
X146765573Y-66101393D01*
X146775500Y-66033260D01*
X146775500Y-65666740D01*
X146765573Y-65598607D01*
X146714198Y-65493517D01*
X146631483Y-65410802D01*
X146631481Y-65410801D01*
X146526395Y-65359427D01*
X146499139Y-65355456D01*
X146458260Y-65349500D01*
X145216740Y-65349500D01*
X145148607Y-65359427D01*
X145087212Y-65389441D01*
X145043732Y-65399500D01*
X142415682Y-65399500D01*
X142360680Y-65382815D01*
X142328233Y-65361134D01*
X142328231Y-65361133D01*
X142328228Y-65361132D01*
X142328227Y-65361132D01*
X142269758Y-65349501D01*
X142269748Y-65349500D01*
X140530252Y-65349500D01*
X140530251Y-65349500D01*
X140530241Y-65349501D01*
X140471772Y-65361132D01*
X140471766Y-65361134D01*
X140405451Y-65405445D01*
X140405445Y-65405451D01*
X140361134Y-65471766D01*
X140361132Y-65471772D01*
X140349501Y-65530241D01*
X140349500Y-65530253D01*
X140100500Y-65530253D01*
X140100500Y-65199500D01*
X140119407Y-65141309D01*
X140168907Y-65105345D01*
X140199500Y-65100500D01*
X148850168Y-65100500D01*
X148908359Y-65119407D01*
G37*
%TD.AperFunction*%
%TA.AperFunction,Conductor*%
G36*
X146645445Y-73176268D02*
G01*
X146688710Y-73219533D01*
X146699500Y-73264478D01*
X146699500Y-74721105D01*
X146680593Y-74779296D01*
X146673258Y-74787289D01*
X146673509Y-74787506D01*
X146668872Y-74792856D01*
X146668872Y-74792857D01*
X146647210Y-74817857D01*
X146574622Y-74901628D01*
X146514834Y-75032544D01*
X146499443Y-75139589D01*
X146472447Y-75194497D01*
X146418332Y-75223050D01*
X146401451Y-75224500D01*
X146043479Y-75224500D01*
X146043476Y-75224501D01*
X145949700Y-75239352D01*
X145949695Y-75239354D01*
X145836659Y-75296949D01*
X145746949Y-75386659D01*
X145689354Y-75499695D01*
X145674500Y-75593477D01*
X145674500Y-76206520D01*
X145674501Y-76206523D01*
X145689352Y-76300299D01*
X145689353Y-76300304D01*
X145730244Y-76380554D01*
X145739816Y-76440986D01*
X145712039Y-76495503D01*
X145657523Y-76523281D01*
X145642035Y-76524500D01*
X145257965Y-76524500D01*
X145199774Y-76505593D01*
X145163810Y-76456093D01*
X145163810Y-76394907D01*
X145169756Y-76380554D01*
X145176504Y-76367311D01*
X145210646Y-76300304D01*
X145225500Y-76206519D01*
X145225499Y-75593482D01*
X145210646Y-75499696D01*
X145153050Y-75386658D01*
X145063342Y-75296950D01*
X145060504Y-75295504D01*
X144979554Y-75254257D01*
X144936290Y-75210992D01*
X144925500Y-75166048D01*
X144925500Y-75133951D01*
X144944407Y-75075760D01*
X144979552Y-75045742D01*
X145063342Y-75003050D01*
X145153050Y-74913342D01*
X145210646Y-74800304D01*
X145225500Y-74706519D01*
X145225499Y-74540478D01*
X145244406Y-74482288D01*
X145254489Y-74470480D01*
X146530498Y-73194472D01*
X146585013Y-73166697D01*
X146645445Y-73176268D01*
G37*
%TD.AperFunction*%
%TA.AperFunction,Conductor*%
G36*
X153458691Y-65119407D02*
G01*
X153494655Y-65168907D01*
X153499500Y-65199500D01*
X153499500Y-74567706D01*
X153480593Y-74625897D01*
X153431093Y-74661861D01*
X153369907Y-74661861D01*
X153345499Y-74650022D01*
X153273036Y-74601604D01*
X153273037Y-74601604D01*
X153214701Y-74590001D01*
X152870002Y-74590001D01*
X152870001Y-74590002D01*
X152870001Y-75222458D01*
X152814746Y-75190557D01*
X152719371Y-75165001D01*
X152620631Y-75165001D01*
X152525256Y-75190557D01*
X152470001Y-75222458D01*
X152470001Y-74590002D01*
X152470000Y-74590001D01*
X152125300Y-74590001D01*
X152066964Y-74601604D01*
X152000811Y-74645807D01*
X152000806Y-74645812D01*
X151964304Y-74700441D01*
X151916253Y-74738320D01*
X151855115Y-74740722D01*
X151826987Y-74727754D01*
X151744498Y-74672636D01*
X151706619Y-74624586D01*
X151700500Y-74590321D01*
X151700500Y-74265478D01*
X151719407Y-74207287D01*
X151729490Y-74195480D01*
X152140460Y-73784511D01*
X152175108Y-73724500D01*
X152180020Y-73715992D01*
X152180020Y-73715990D01*
X152180022Y-73715988D01*
X152200500Y-73639562D01*
X152200500Y-73560438D01*
X152200500Y-72560438D01*
X152189147Y-72518068D01*
X152188405Y-72515298D01*
X152188405Y-72515297D01*
X152184213Y-72499655D01*
X152180022Y-72484012D01*
X152140460Y-72415489D01*
X151994471Y-72269500D01*
X151966696Y-72214986D01*
X151976267Y-72154554D01*
X152019532Y-72111289D01*
X152064477Y-72100499D01*
X152083257Y-72100499D01*
X152083260Y-72100499D01*
X152151393Y-72090572D01*
X152256483Y-72039197D01*
X152339198Y-71956482D01*
X152390573Y-71851392D01*
X152400500Y-71783259D01*
X152400500Y-70541739D01*
X152390573Y-70473606D01*
X152378182Y-70448260D01*
X152360559Y-70412210D01*
X152350500Y-70368730D01*
X152350500Y-69894012D01*
X152369407Y-69835821D01*
X152386695Y-69817484D01*
X152464404Y-69753710D01*
X152546410Y-69686410D01*
X152677685Y-69526450D01*
X152775232Y-69343954D01*
X152835300Y-69145934D01*
X152835301Y-69145929D01*
X152855583Y-68940003D01*
X152855583Y-68939996D01*
X152835301Y-68734070D01*
X152835300Y-68734065D01*
X152808341Y-68645194D01*
X152775232Y-68536046D01*
X152677685Y-68353550D01*
X152546410Y-68193590D01*
X152456016Y-68119406D01*
X152386452Y-68062316D01*
X152203954Y-67964768D01*
X152005934Y-67904699D01*
X152005929Y-67904698D01*
X151800003Y-67884417D01*
X151799997Y-67884417D01*
X151594070Y-67904698D01*
X151594065Y-67904699D01*
X151396052Y-67964766D01*
X151396049Y-67964766D01*
X151396046Y-67964768D01*
X151396044Y-67964768D01*
X151396044Y-67964769D01*
X151365453Y-67981120D01*
X151305220Y-67991874D01*
X151250169Y-67965171D01*
X151248784Y-67963812D01*
X150904475Y-67619504D01*
X150876697Y-67564987D01*
X150886268Y-67504555D01*
X150929533Y-67461290D01*
X150974478Y-67450500D01*
X152669747Y-67450500D01*
X152669748Y-67450500D01*
X152728231Y-67438867D01*
X152794552Y-67394552D01*
X152838867Y-67328231D01*
X152850500Y-67269748D01*
X152850500Y-65530252D01*
X152838867Y-65471769D01*
X152794552Y-65405448D01*
X152794548Y-65405445D01*
X152728233Y-65361134D01*
X152728231Y-65361133D01*
X152728228Y-65361132D01*
X152728227Y-65361132D01*
X152669758Y-65349501D01*
X152669748Y-65349500D01*
X152669747Y-65349500D01*
X151193647Y-65349500D01*
X151144146Y-65336236D01*
X151115989Y-65319979D01*
X151039565Y-65299501D01*
X151039563Y-65299501D01*
X149750833Y-65299501D01*
X149692642Y-65280594D01*
X149680835Y-65270510D01*
X149679826Y-65269501D01*
X149652051Y-65214987D01*
X149661622Y-65154555D01*
X149704887Y-65111290D01*
X149749832Y-65100500D01*
X153400500Y-65100500D01*
X153458691Y-65119407D01*
G37*
%TD.AperFunction*%
%TD*%
M02*
